<svg width="167" height="81" viewBox="0 0 167 81" fill="none" xmlns="http://www.w3.org/2000/svg">
<g filter="url(#filter0_d_58_80)">
<path d="M11.12 64L10.56 63.68L10.32 62.72C10.48 62.4 10.7467 61.84 11.12 61.04C11.4933 60.24 11.8667 59.44 12.24 58.64C12.6667 57.84 12.9867 57.3867 13.2 57.28L13.28 55.12C12.48 55.76 11.84 56.48 11.36 57.28C10.9333 58.08 10.3733 58.8533 9.68 59.6C9.62667 59.6533 9.52 59.8133 9.36 60.08C9.2 60.3467 9.06667 60.5067 8.96 60.56C8.32 60.8267 7.92 60.96 7.76 60.96C7.44 60.96 7.41333 60.7467 7.68 60.32C8 59.8933 8.45333 59.3333 9.04 58.64C10.1067 57.52 11.04 56.48 11.84 55.52C12.6933 54.56 13.3867 53.8133 13.92 53.28C13.7067 52.8533 13.6 52.32 13.6 51.68C13.6 50.8267 13.8133 49.9733 14.24 49.12L13.84 49.2L13.36 46.08L13.52 45.76C13.5733 45.6 13.6 45.44 13.6 45.28C13.6 45.0667 13.6 44.8533 13.6 44.64C13.6 43.68 13.4667 42.64 13.2 41.52C12.9867 40.4 12.88 39.3867 12.88 38.48C12.88 38.2133 12.88 38 12.88 37.84C12.9333 37.6267 12.9867 37.4133 13.04 37.2L12.48 36.4V36.24C12.48 36.08 12.3733 35.92 12.16 35.76C12 35.6 11.92 35.52 11.92 35.52L11.6 34.24V34.08C11.6 33.92 11.52 33.7867 11.36 33.68C11.2533 33.5733 11.1467 33.4133 11.04 33.2L10.08 29.84C10.08 29.84 10.1067 29.7333 10.16 29.52C10.2133 29.2533 10.2133 29.0133 10.16 28.8C10.16 28.6933 10 28.5067 9.68 28.24C9.41333 27.92 9.28 27.76 9.28 27.76C9.28 27.76 9.2 27.7333 9.04 27.68C8.88 27.6267 8.77333 27.68 8.72 27.84C8.72 27.84 8.66667 27.9733 8.56 28.24C8.45333 28.4533 8.42667 28.6667 8.48 28.88C8.58667 29.6267 8.64 30.4533 8.64 31.36C8.64 31.84 8.56 32.08 8.4 32.08C8.29333 32.08 8.18667 31.9733 8.08 31.76C7.97333 31.4933 7.94667 31.2533 8 31.04C8 30.88 7.94667 30.64 7.84 30.32C7.68 29.7333 7.46667 29.04 7.2 28.24C6.98667 27.3867 6.74667 26.7733 6.48 26.4L5.76 25.92C5.38667 25.6533 5.01333 25.3067 4.64 24.88C4.32 24.4533 4.13333 24.0267 4.08 23.6C4.08 23.6 4.21333 23.3333 4.48 22.8C4.8 22.2667 5.22667 21.9733 5.76 21.92H6C6.58667 21.92 7.12 22.3467 7.6 23.2L8.16 24.08C8.53333 24.08 8.85333 24.3467 9.12 24.88C9.44 25.36 9.70667 25.8933 9.92 26.48C10.1333 27.0667 10.3467 27.4933 10.56 27.76C10.9333 28.3467 11.2 28.7733 11.36 29.04C11.52 29.2533 11.6533 29.52 11.76 29.84C11.8667 30.1067 12.0267 30.6133 12.24 31.36C12.4533 31.5733 12.56 31.7867 12.56 32C12.6133 32.16 12.7733 32.32 13.04 32.48L14 34.32L14.88 36.96C15.0933 36.96 15.3067 37.44 15.52 38.4C15.7867 39.3067 16 40.2667 16.16 41.28C16.3733 42.24 16.48 42.88 16.48 43.2L16.72 43.36V43.6C16.6667 43.7067 16.64 43.84 16.64 44C16.6933 44.16 16.72 44.2933 16.72 44.4L16.64 44.64L16.96 45.04L16.88 45.28C17.1467 45.8667 17.3067 46.5067 17.36 47.2C17.4133 47.8933 17.4667 48.56 17.52 49.2L17.04 50L17.2 50.72C17.4667 50.56 17.6 50.3467 17.6 50.08C17.6 49.76 17.7067 49.4933 17.92 49.28C18.1867 49.0133 18.72 48.5067 19.52 47.76C20.3733 46.96 21.3067 46.1067 22.32 45.2C23.3333 44.24 24.2133 43.3867 24.96 42.64C25.7067 41.84 26.1067 41.3333 26.16 41.12L26.72 40.8L26.88 40.88L27.76 39.6C28.08 39.6 28.6133 39.2533 29.36 38.56C30.16 37.8667 30.9333 37.12 31.68 36.32C32.4267 35.52 32.9067 34.9867 33.12 34.72L33.44 34.8L33.76 34.16C33.9733 33.84 34.4267 33.4133 35.12 32.88C35.8667 32.3467 36.6667 31.7867 37.52 31.2C38.3733 30.6133 39.1467 30.1067 39.84 29.68C40.5867 29.2533 41.0667 28.9867 41.28 28.88L41.68 27.84C42.7467 27.04 43.7867 26.2667 44.8 25.52C45.8133 24.72 46.8533 23.9733 47.92 23.28L48.08 23.36L53.92 19.76L54.48 19.84C54.64 19.84 54.8 19.7333 54.96 19.52C55.1733 19.3067 55.3067 19.1467 55.36 19.04L56.08 19.44L56.96 18.72L57.6 19.12C57.9733 19.12 58.1067 18.88 58 18.4L59.04 17.92C59.4133 17.9733 59.6267 18 59.68 18C59.7867 17.9467 59.9467 17.92 60.16 17.92C60.4267 17.92 60.6933 17.9467 60.96 18C61.28 18 61.5733 18 61.84 18C62.1067 18 62.32 18 62.48 18C62.6933 17.9467 62.9067 17.8933 63.12 17.84C63.28 17.7867 63.5467 17.8933 63.92 18.16C64.2933 18.4267 64.5867 18.6133 64.8 18.72C65.9733 19.36 66.56 20.4533 66.56 22C66.56 22.9067 66.1867 24 65.44 25.28C64.6933 26.56 63.8133 27.8133 62.8 29.04C61.7867 30.2667 60.88 31.3067 60.08 32.16C60.0267 32.2133 59.8133 32.3467 59.44 32.56C59.12 32.72 58.8267 32.8 58.56 32.8C58.4533 32.8 58.4 32.7467 58.4 32.64C58.4 32.5333 58.4533 32.3733 58.56 32.16C58.6667 31.9467 58.88 31.6533 59.2 31.28C59.9467 30.3733 60.7467 29.36 61.6 28.24C62.4533 27.12 63.1733 26.0267 63.76 24.96C64.4 23.84 64.72 22.9333 64.72 22.24C64.72 20.9067 64.1067 20.1067 62.88 19.84L62.4 20.24L61.6 20.08L61.52 20.24C61.4667 20.24 61.4133 20.2133 61.36 20.16C61.36 20.0533 61.3333 20 61.28 20L61.2 20.16L60.88 19.76C60.8267 20.0267 60.6133 20.2933 60.24 20.56C59.92 20.8267 59.6267 20.88 59.36 20.72L58.88 21.12L58.48 20.8C58.32 20.8 58.1067 20.9067 57.84 21.12C57.5733 21.28 57.3867 21.4133 57.28 21.52L56.56 21.04L56.16 21.2L56 21.92H55.92C54.4267 22.6133 52.8267 23.4133 51.12 24.32C49.4133 25.1733 47.8667 26.08 46.48 27.04C45.84 27.4667 44.9067 28.1067 43.68 28.96C42.4533 29.76 41.1467 30.6667 39.76 31.68C38.4267 32.64 37.2 33.6 36.08 34.56C35.0133 35.4667 34.32 36.2133 34 36.8L33.6 36.96C33.2267 37.3333 32.9333 37.7333 32.72 38.16L29.6 40.64L29.44 40.48C28 41.7067 26.6933 42.96 25.52 44.24C24.4 45.4667 23.2 46.7467 21.92 48.08C20.6933 49.4133 19.1733 50.8 17.36 52.24L17.04 53.84L17.36 54.32L16.8 55.68C16.9067 55.7867 16.96 55.8933 16.96 56C16.96 56.2667 16.88 56.6133 16.72 57.04C16.6133 57.4133 16.5067 57.7067 16.4 57.92C16.24 58.9333 16.0267 59.9467 15.76 60.96C15.5467 61.9733 15.0933 62.7733 14.4 63.36C13.76 63.9467 12.6667 64.16 11.12 64Z" fill="#77C7F4"/>
<path d="M58.476 63.312C58.2613 63.312 58.154 63.082 58.154 62.622C58.154 62.3153 58.2153 61.932 58.338 61.472C58.4913 61.0427 58.6753 60.5367 58.89 59.954C59.1353 59.7393 59.258 59.4633 59.258 59.126C59.3193 59.1567 59.35 59.1567 59.35 59.126C59.3807 59.0647 59.396 59.034 59.396 59.034C59.4573 58.942 59.488 58.85 59.488 58.758C59.488 58.6353 59.5033 58.528 59.534 58.436V58.344C59.4113 58.0373 59.35 57.7767 59.35 57.562L59.258 57.516C59.1967 57.332 59.1507 57.1327 59.12 56.918C59.12 56.7033 59.1353 56.504 59.166 56.32C59.1967 56.136 59.1813 56.044 59.12 56.044C59.0893 56.0133 59.074 55.9673 59.074 55.906C59.074 55.8447 59.074 55.7987 59.074 55.768C59.1047 55.7067 59.1353 55.6147 59.166 55.492C59.1967 55.4307 59.2427 55.3233 59.304 55.17C59.396 54.986 59.442 54.8787 59.442 54.848C59.442 54.7867 59.4267 54.7407 59.396 54.71C59.3653 54.6487 59.35 54.6027 59.35 54.572L59.488 54.388V54.066C59.5187 54.0047 59.534 53.928 59.534 53.836C59.5647 53.7747 59.6107 53.7287 59.672 53.698C59.7333 53.6367 59.7793 53.5907 59.81 53.56C59.8713 53.4987 59.9173 53.422 59.948 53.33C60.0093 53.2073 60.0553 53.1153 60.086 53.054C60.1167 52.9927 60.1473 52.9467 60.178 52.916C60.2393 52.8547 60.2853 52.778 60.316 52.686C60.3773 52.594 60.4233 52.5173 60.454 52.456C60.4847 52.364 60.5307 52.272 60.592 52.18L60.914 51.904C61.0367 51.7813 61.1593 51.72 61.282 51.72C61.4047 51.72 61.4813 51.8427 61.512 52.088L61.466 52.318L60.73 53.1C60.6687 53.1613 60.638 53.238 60.638 53.33C60.6073 53.3607 60.5767 53.3913 60.546 53.422C60.546 53.4527 60.5307 53.4987 60.5 53.56C60.5 53.6213 60.454 53.698 60.362 53.79L60.224 54.204C60.1627 54.204 60.132 54.2347 60.132 54.296C60.1013 54.3267 60.0707 54.5107 60.04 54.848C60.04 55.1547 60.04 55.3387 60.04 55.4H60.178C60.178 55.4307 60.178 55.4767 60.178 55.538C60.2087 55.5687 60.2087 55.6147 60.178 55.676V55.952C60.178 56.0133 60.1627 56.0747 60.132 56.136C60.132 56.136 60.1167 56.1513 60.086 56.182C60.086 56.182 60.086 56.1973 60.086 56.228C60.086 56.2587 60.1013 56.3047 60.132 56.366C60.1627 56.3967 60.178 56.4427 60.178 56.504C60.178 56.5347 60.1627 56.5653 60.132 56.596C60.132 56.596 60.132 56.6113 60.132 56.642C60.132 56.6727 60.1473 56.7033 60.178 56.734C60.2087 56.734 60.224 56.7493 60.224 56.78V56.826C60.4693 56.366 60.6993 55.8907 60.914 55.4C61.1593 54.9093 61.4047 54.4187 61.65 53.928C61.7113 53.8053 61.7727 53.7747 61.834 53.836C61.926 53.8667 61.9873 53.8513 62.018 53.79C62.0487 53.7593 62.064 53.6827 62.064 53.56C62.064 53.468 62.0487 53.376 62.018 53.284C62.018 53.192 62.064 53.0847 62.156 52.962L62.8 51.812C63.6893 50.2173 64.5787 48.684 65.468 47.212C66.388 45.74 67.2467 44.6053 68.044 43.808L68.182 43.716L68.32 43.486C68.32 43.486 68.3507 43.4707 68.412 43.44C68.4733 43.4093 68.5193 43.4247 68.55 43.486C68.55 43.5167 68.5193 43.578 68.458 43.67C68.4273 43.762 68.412 43.8233 68.412 43.854C68.504 44.0073 68.6113 44.0227 68.734 43.9C68.7647 43.8387 68.7647 43.7007 68.734 43.486C68.7033 43.2713 68.7033 43.164 68.734 43.164C68.7953 43.1333 68.826 43.1333 68.826 43.164C68.8567 43.1947 68.8873 43.21 68.918 43.21C68.9793 43.21 69.01 43.164 69.01 43.072C69.01 42.98 69.0253 42.9187 69.056 42.888C69.3933 42.7653 69.7 42.704 69.976 42.704C70.1293 42.704 70.344 42.7807 70.62 42.934C70.9267 43.0873 71.08 43.302 71.08 43.578C71.08 43.7313 71.0033 43.9153 70.85 44.13C70.8193 44.1607 70.7887 44.222 70.758 44.314C70.7273 44.3753 70.6813 44.4367 70.62 44.498C70.5893 44.5287 70.5587 44.544 70.528 44.544C70.528 44.5133 70.4973 44.5133 70.436 44.544C70.4053 44.5747 70.3593 44.59 70.298 44.59C70.2673 44.5593 70.2213 44.544 70.16 44.544C70.0987 44.544 70.0833 44.59 70.114 44.682C70.1753 44.774 70.1907 44.8353 70.16 44.866C70.1293 44.8967 70.0987 44.8967 70.068 44.866C70.0373 44.8353 69.9913 44.8507 69.93 44.912C69.8993 44.9427 69.9147 44.9733 69.976 45.004C70.068 45.004 70.0833 45.0347 70.022 45.096C69.838 45.28 69.608 45.4793 69.332 45.694C69.0867 45.878 68.8413 46.062 68.596 46.246C68.5653 46.2767 68.5347 46.2767 68.504 46.246C68.4733 46.1847 68.4427 46.1693 68.412 46.2L68.09 46.66C67.7833 46.9667 67.4767 47.2887 67.17 47.626C66.8633 47.9633 66.5413 48.3467 66.204 48.776C66.112 48.96 66.0047 49.1287 65.882 49.282C65.7593 49.4353 65.5907 49.4967 65.376 49.466C65.376 49.4967 65.4067 49.5427 65.468 49.604C65.5293 49.6347 65.5293 49.696 65.468 49.788C64.9467 50.524 64.4253 51.2907 63.904 52.088C63.3827 52.8853 62.892 53.7133 62.432 54.572C62.2173 54.94 61.9567 55.4153 61.65 55.998L61.236 56.826C61.2053 56.918 61.1593 56.964 61.098 56.964C61.0673 56.9333 61.0213 56.918 60.96 56.918C61.052 57.102 61.0673 57.3013 61.006 57.516C61.0367 57.516 61.052 57.5313 61.052 57.562C61.6347 57.9607 62.0487 58.2367 62.294 58.39C62.57 58.5433 63.03 58.6967 63.674 58.85C63.9193 58.9113 64.1647 58.988 64.41 59.08C64.6553 59.1413 64.916 59.172 65.192 59.172C65.2227 59.172 65.2227 59.1873 65.192 59.218C65.192 59.2487 65.2073 59.264 65.238 59.264C65.3607 59.264 65.4833 59.2793 65.606 59.31C65.7287 59.31 65.8513 59.31 65.974 59.31C66.0047 59.31 66.02 59.31 66.02 59.31C66.0507 59.2793 66.0813 59.264 66.112 59.264C66.1733 59.264 66.2653 59.2947 66.388 59.356C66.6027 59.356 66.8327 59.356 67.078 59.356C67.354 59.356 67.5993 59.3407 67.814 59.31C68.0593 59.2793 68.2893 59.2487 68.504 59.218C68.7493 59.1567 68.9793 59.1107 69.194 59.08C69.6233 59.0493 70.0373 58.9727 70.436 58.85C70.8653 58.6967 71.2793 58.5587 71.678 58.436C72.138 58.2827 72.6287 58.114 73.15 57.93C73.702 57.7153 74.2693 57.47 74.852 57.194C74.9133 57.1633 74.944 57.24 74.944 57.424C74.9747 57.5773 75.0207 57.6387 75.082 57.608C75.1433 57.5773 75.22 57.4547 75.312 57.24C75.4347 57.0253 75.5113 56.9027 75.542 56.872L75.956 56.32L76.324 55.906C76.3853 55.814 76.4467 55.6913 76.508 55.538C76.5693 55.3847 76.6153 55.262 76.646 55.17C76.738 54.9247 76.8147 54.664 76.876 54.388C76.9373 54.112 76.968 53.8207 76.968 53.514C76.968 53.3607 77.0447 53.284 77.198 53.284C77.3513 53.284 77.428 53.3607 77.428 53.514C77.428 53.6673 77.428 53.836 77.428 54.02C77.428 54.204 77.3973 54.3727 77.336 54.526C77.336 54.5567 77.3053 54.572 77.244 54.572C77.2133 54.5413 77.198 54.5413 77.198 54.572C77.1673 54.7867 77.1367 55.0167 77.106 55.262C77.0753 55.4767 76.9987 55.6913 76.876 55.906L76.6 56.366C77.244 56.0287 77.8573 55.676 78.44 55.308C79.0533 54.9093 79.5747 54.4647 80.004 53.974L80.418 53.514C80.4487 53.4527 80.4947 53.4067 80.556 53.376C80.6173 53.3453 80.6633 53.3913 80.694 53.514C80.602 53.606 80.5867 53.7287 80.648 53.882C80.8013 53.8513 80.8933 53.7133 80.924 53.468C80.9547 53.192 81.0007 52.9467 81.062 52.732C81.338 52.3947 81.614 52.0267 81.89 51.628C81.9207 51.5973 81.9667 51.582 82.028 51.582C82.1507 51.582 82.258 51.5973 82.35 51.628C82.442 51.6587 82.534 51.6127 82.626 51.49C82.5647 51.3367 82.5033 51.2293 82.442 51.168C82.3807 51.076 82.396 50.9533 82.488 50.8L82.626 50.57C82.7793 50.294 82.948 50.0947 83.132 49.972C83.316 49.8493 83.4387 49.5887 83.5 49.19C84.0827 48.1473 84.374 47.0127 84.374 45.786C84.374 44.3753 83.9293 43.072 83.04 41.876C82.1813 40.6493 80.8627 39.8827 79.084 39.576C79.0227 39.576 78.8387 39.53 78.532 39.438C78.256 39.3153 78.0873 39.254 78.026 39.254C77.9647 39.254 77.9033 39.254 77.842 39.254C77.7807 39.2233 77.7193 39.208 77.658 39.208C77.5353 39.208 77.4433 39.2233 77.382 39.254C77.3207 39.254 77.1827 39.2233 76.968 39.162C76.692 39.0087 76.3393 38.9167 75.91 38.886C75.5113 38.8247 75.2813 38.7787 75.22 38.748L74.392 38.932C74.2387 38.932 74.0853 38.932 73.932 38.932C73.8093 38.9013 73.6867 38.886 73.564 38.886C72.8587 38.886 72.276 38.9473 71.816 39.07C71.3867 39.162 71.0033 39.2233 70.666 39.254L68.78 39.438C68.596 39.346 68.4273 39.3767 68.274 39.53H68.228C68.0133 39.53 67.7987 39.5607 67.584 39.622C67.4 39.6527 67.2007 39.6987 66.986 39.76C66.8633 39.7907 66.7253 39.806 66.572 39.806C66.4493 39.806 66.3113 39.8367 66.158 39.898V39.944C66.0353 39.9747 65.8973 40.0053 65.744 40.036C65.6213 40.036 65.4833 40.0667 65.33 40.128H65.284C65.1613 40.1893 65.0387 40.2507 64.916 40.312C64.824 40.3733 64.7013 40.3887 64.548 40.358C64.4253 40.3887 64.2873 40.4193 64.134 40.45C64.0113 40.4807 63.8733 40.5267 63.72 40.588H63.628C63.536 40.588 63.444 40.496 63.352 40.312C63.26 40.128 63.214 40.0053 63.214 39.944C63.1833 40.128 63.1373 40.3273 63.076 40.542C63.0453 40.7567 62.938 40.864 62.754 40.864V40.91C62.5393 40.9407 62.34 41.002 62.156 41.094C61.972 41.186 61.7727 41.2627 61.558 41.324C61.4353 41.3547 61.3127 41.37 61.19 41.37C61.0673 41.3393 60.9293 41.324 60.776 41.324C60.7147 41.324 60.6533 41.3393 60.592 41.37C60.5307 41.37 60.4693 41.3853 60.408 41.416C60.316 41.4467 60.2547 41.508 60.224 41.6C60.224 41.692 60.1933 41.7687 60.132 41.83C60.0093 41.9527 59.856 42.0447 59.672 42.106C59.488 42.1673 59.3347 42.2287 59.212 42.29C59.1507 42.3207 59.0587 42.29 58.936 42.198C58.844 42.106 58.7673 42.0907 58.706 42.152C58.6753 42.1827 58.6447 42.2593 58.614 42.382C58.614 42.5047 58.5833 42.5813 58.522 42.612H58.476L57.372 43.118C57.2187 43.1793 57.0347 43.2713 56.82 43.394C56.6053 43.5167 56.4213 43.5933 56.268 43.624C56.2373 43.624 56.222 43.5627 56.222 43.44C56.222 43.3173 56.1913 43.2867 56.13 43.348C55.9767 43.4093 55.808 43.578 55.624 43.854C55.4707 44.0993 55.3173 44.268 55.164 44.36C55.0107 44.4827 54.8573 44.544 54.704 44.544C54.5507 44.544 54.4127 44.6053 54.29 44.728C54.198 44.7893 54.106 44.9273 54.014 45.142C53.9527 45.326 53.876 45.464 53.784 45.556L53.14 46.43C53.0787 46.4913 53.0173 46.5527 52.956 46.614C52.8947 46.6753 52.864 46.752 52.864 46.844C52.68 47.1507 52.588 47.5033 52.588 47.902C52.588 48.5767 52.818 49.0673 53.278 49.374C53.7687 49.65 54.3053 49.8647 54.888 50.018H54.934C55.1487 50.1713 55.348 50.2327 55.532 50.202C55.6547 50.1407 55.762 50.11 55.854 50.11C55.9767 50.11 56.084 50.1713 56.176 50.294L56.82 50.432C57.1573 50.524 57.326 50.616 57.326 50.708C57.326 50.7693 57.2493 50.8307 57.096 50.892C56.9733 50.9227 56.8353 50.938 56.682 50.938C56.1607 50.938 55.5167 50.8307 54.75 50.616C54.014 50.4013 53.3547 50.064 52.772 49.604C52.1893 49.1133 51.852 48.5153 51.76 47.81C51.76 47.7793 51.714 47.7027 51.622 47.58C51.5607 47.4573 51.5147 47.35 51.484 47.258C51.4533 47.1047 51.4227 46.9667 51.392 46.844C51.392 46.6907 51.392 46.5527 51.392 46.43C51.392 45.4487 51.7753 44.544 52.542 43.716C52.6953 43.5627 52.8333 43.4553 52.956 43.394C53.0787 43.3327 53.232 43.2407 53.416 43.118C53.5693 42.9953 53.646 42.9033 53.646 42.842C53.646 42.75 53.738 42.6427 53.922 42.52C54.1673 42.336 54.4893 42.152 54.888 41.968C55.2867 41.7533 55.6087 41.5847 55.854 41.462V41.416H55.946C56.0687 41.416 56.1913 41.3547 56.314 41.232C56.866 40.956 57.4487 40.7107 58.062 40.496C58.706 40.2507 59.35 40.0207 59.994 39.806C60.178 39.714 60.3467 39.668 60.5 39.668C60.6533 39.668 60.776 39.714 60.868 39.806C60.868 39.7447 60.868 39.6987 60.868 39.668C60.868 39.6067 60.8833 39.5607 60.914 39.53V39.484C61.6193 39.2693 62.3247 39.0547 63.03 38.84C63.7353 38.5947 64.4253 38.472 65.1 38.472H65.146C65.33 38.472 65.468 38.4413 65.56 38.38L65.836 38.334H65.882C66.066 38.3953 66.2347 38.3647 66.388 38.242C67.1547 38.0887 67.8907 37.9967 68.596 37.966C69.3013 37.9353 69.8993 37.9047 70.39 37.874C70.482 37.9047 70.574 37.92 70.666 37.92C70.758 37.8893 70.8347 37.874 70.896 37.874L71.356 37.828C71.448 37.828 71.54 37.8433 71.632 37.874C71.7547 37.874 71.862 37.8587 71.954 37.828L74.53 37.782H74.576C74.668 37.782 74.7447 37.828 74.806 37.92C74.898 37.9813 74.99 37.9507 75.082 37.828C75.3273 37.828 75.6953 37.874 76.186 37.966C76.7073 38.058 77.2287 38.15 77.75 38.242C78.2713 38.3033 78.6547 38.3647 78.9 38.426C79.36 38.518 80.004 38.7327 80.832 39.07C81.6907 39.3767 82.5493 39.852 83.408 40.496C84.2667 41.1093 84.9567 41.9373 85.478 42.98C86.03 43.992 86.2293 45.2647 86.076 46.798C86.0453 47.35 85.9227 47.8713 85.708 48.362C85.4933 48.8527 85.2633 49.3587 85.018 49.88L84.558 50.892C84.5273 50.9227 84.4813 50.9687 84.42 51.03C84.3587 51.0607 84.2973 51.1067 84.236 51.168C84.2053 51.26 84.1593 51.3367 84.098 51.398C84.0367 51.4287 83.9753 51.49 83.914 51.582C83.7913 51.766 83.6533 51.95 83.5 52.134C83.3467 52.2873 83.1933 52.4713 83.04 52.686L82.948 52.824C82.5187 53.4987 81.982 54.112 81.338 54.664C80.694 55.1853 80.05 55.6607 79.406 56.09V56.136C79.3447 56.1667 79.268 56.2127 79.176 56.274C79.1147 56.3047 79.0533 56.3507 78.992 56.412L78.946 56.458H78.9C78.8387 56.4887 78.762 56.5193 78.67 56.55C78.578 56.5807 78.5013 56.6573 78.44 56.78C78.3173 56.872 78.1947 56.918 78.072 56.918C77.6733 57.1327 77.3053 57.3167 76.968 57.47C76.6307 57.5927 76.3393 57.7153 76.094 57.838C76.094 57.8993 76.048 57.9913 75.956 58.114C75.864 58.2367 75.7873 58.3287 75.726 58.39C75.2047 58.8193 74.852 59.172 74.668 59.448C74.484 59.724 74.254 59.9387 73.978 60.092C73.9473 60.1227 73.9013 60.138 73.84 60.138C73.7173 60.138 73.6253 60.184 73.564 60.276C73.5027 60.368 73.4413 60.46 73.38 60.552C73.2267 60.7053 72.92 60.8587 72.46 61.012C72.0307 61.1653 71.7087 61.3187 71.494 61.472C71.402 61.5027 71.2947 61.5333 71.172 61.564C71.08 61.6253 71.034 61.656 71.034 61.656H70.804C70.7733 61.656 70.712 61.6867 70.62 61.748C70.528 61.84 70.4513 61.9013 70.39 61.932C70.3287 61.9627 70.2673 61.978 70.206 61.978C70.1447 61.978 70.0987 62.0087 70.068 62.07C69.9147 62.07 69.746 62.1007 69.562 62.162C69.5313 62.162 69.378 62.162 69.102 62.162C68.826 62.1927 68.6573 62.2233 68.596 62.254C68.5653 62.2847 68.458 62.3307 68.274 62.392C68.09 62.4533 67.9673 62.484 67.906 62.484C67.8753 62.484 67.8447 62.4687 67.814 62.438C67.7833 62.438 67.7373 62.4533 67.676 62.484C67.6453 62.5453 67.5993 62.576 67.538 62.576C67.5073 62.576 67.446 62.5607 67.354 62.53C67.2927 62.53 67.2313 62.53 67.17 62.53C67.1393 62.4993 67.078 62.5147 66.986 62.576C66.9247 62.6373 66.8633 62.668 66.802 62.668C66.7713 62.668 66.7407 62.6527 66.71 62.622C66.71 62.622 66.6947 62.622 66.664 62.622C66.6027 62.622 66.5413 62.6373 66.48 62.668C66.4187 62.6987 66.3573 62.714 66.296 62.714C66.0813 62.714 65.882 62.6987 65.698 62.668C65.514 62.6373 65.33 62.622 65.146 62.622C65.1153 62.622 65.0233 62.576 64.87 62.484C64.7473 62.392 64.6707 62.346 64.64 62.346C64.4253 62.346 64.2107 62.3307 63.996 62.3C63.812 62.3 63.628 62.2847 63.444 62.254C63.4133 62.254 63.3827 62.2233 63.352 62.162C63.352 62.1313 63.3213 62.116 63.26 62.116H63.168C63.1373 62.116 63.0607 62.0853 62.938 62.024C62.846 61.9627 62.7847 61.9167 62.754 61.886L62.708 61.84C62.5853 61.8093 62.5087 61.7633 62.478 61.702C62.478 61.6407 62.4473 61.61 62.386 61.61C62.3553 61.61 62.34 61.61 62.34 61.61C62.34 61.6407 62.3247 61.656 62.294 61.656C62.2327 61.656 62.202 61.6253 62.202 61.564C62.11 61.5027 61.9567 61.426 61.742 61.334C61.558 61.242 61.4353 61.1347 61.374 61.012C61.2513 60.9813 61.1747 60.9507 61.144 60.92C61.144 60.8893 61.1133 60.828 61.052 60.736L60.868 60.644L60.408 60.23C60.408 60.138 60.3927 60.092 60.362 60.092L60.224 60C60.224 59.8773 60.178 59.816 60.086 59.816C60.0247 59.632 59.994 59.54 59.994 59.54C59.718 60.1533 59.4727 60.7513 59.258 61.334C59.074 61.9167 58.9053 62.4533 58.752 62.944C58.6907 63.1893 58.5987 63.312 58.476 63.312ZM66.526 61.932C66.5873 61.932 66.6333 61.9167 66.664 61.886C66.7253 61.8553 66.7713 61.8247 66.802 61.794H66.986C67.2007 61.6713 67.308 61.6713 67.308 61.794C67.308 61.9167 67.3847 61.9167 67.538 61.794H67.768C67.7987 61.702 67.8447 61.656 67.906 61.656C67.998 61.656 68.0593 61.6407 68.09 61.61C68.1513 61.61 68.182 61.5793 68.182 61.518C68.2127 61.4873 68.274 61.472 68.366 61.472C68.3967 61.472 68.4427 61.5027 68.504 61.564C68.6267 61.564 68.872 61.5027 69.24 61.38C69.6387 61.2573 69.8533 61.196 69.884 61.196C69.9147 61.2267 69.9607 61.196 70.022 61.104C70.114 61.012 70.1753 60.9813 70.206 61.012C70.206 60.9813 70.252 60.9507 70.344 60.92C70.436 60.92 70.4973 60.9047 70.528 60.874C70.712 60.782 70.8653 60.736 70.988 60.736C71.0187 60.7053 71.0953 60.644 71.218 60.552C71.3713 60.4907 71.448 60.4447 71.448 60.414C71.5093 60.3527 71.6013 60.3067 71.724 60.276C71.8467 60.2453 71.9233 60.2147 71.954 60.184C72.046 60.184 72.3527 60.0307 72.874 59.724C73.426 59.3867 73.932 58.988 74.392 58.528C73.8707 58.712 73.3647 58.8653 72.874 58.988C72.414 59.08 72.1687 59.126 72.138 59.126C72.0767 59.1873 72.0307 59.218 72 59.218C71.8773 59.1567 71.816 59.126 71.816 59.126L71.77 59.172C71.7393 59.172 71.7087 59.1873 71.678 59.218C71.6473 59.2487 71.586 59.264 71.494 59.264C71.4633 59.2333 71.3713 59.264 71.218 59.356C71.0953 59.4173 71.0187 59.448 70.988 59.448C70.9573 59.448 70.9113 59.4633 70.85 59.494C70.8193 59.494 70.7733 59.4787 70.712 59.448C70.5893 59.5707 70.2673 59.6627 69.746 59.724C69.2553 59.7547 68.9333 59.77 68.78 59.77H68.734C68.7033 59.7393 68.6573 59.7393 68.596 59.77C68.5653 59.77 68.5193 59.77 68.458 59.77C68.458 59.8007 68.4427 59.8313 68.412 59.862H68.136C68.0133 59.862 67.8907 59.8773 67.768 59.908C67.676 59.9387 67.5687 59.954 67.446 59.954L67.4 59.908C67.3693 59.908 67.3233 59.9233 67.262 59.954C67.2007 59.9847 67.1547 60 67.124 60C67.0933 60 67.0627 59.9847 67.032 59.954C67.032 59.8927 67.0013 59.862 66.94 59.862C66.9093 59.862 66.8633 59.8927 66.802 59.954C66.7713 59.9847 66.7407 59.9847 66.71 59.954H66.526C66.434 59.954 66.388 59.954 66.388 59.954C66.3573 59.954 66.3267 59.9693 66.296 60C66.296 60 66.2807 60 66.25 60C66.25 60 66.2193 59.9693 66.158 59.908C66.1273 59.908 66.066 59.9387 65.974 60C65.9127 60.0307 65.8513 60.0307 65.79 60H65.698C65.6367 59.9387 65.606 59.908 65.606 59.908C65.5753 59.908 65.56 59.9233 65.56 59.954H65.146C64.962 59.954 64.778 59.8927 64.594 59.77C64.41 59.6473 64.2413 59.586 64.088 59.586C64.0573 59.586 64.0267 59.6013 63.996 59.632C63.996 59.632 63.9807 59.632 63.95 59.632C63.9193 59.632 63.8887 59.632 63.858 59.632C63.858 59.6013 63.8427 59.586 63.812 59.586C63.812 59.586 63.7967 59.586 63.766 59.586C63.766 59.586 63.7507 59.6013 63.72 59.632C63.72 59.6013 63.7047 59.586 63.674 59.586C63.674 59.5553 63.674 59.54 63.674 59.54L63.26 59.448C63.26 59.356 63.2293 59.31 63.168 59.31C63.1373 59.218 62.938 59.126 62.57 59.034C62.202 58.942 61.9873 58.8807 61.926 58.85C61.8953 58.85 61.834 58.8193 61.742 58.758C61.6807 58.6967 61.65 58.6813 61.65 58.712H61.604C61.512 58.712 61.3893 58.6507 61.236 58.528C61.1133 58.3747 60.9907 58.2827 60.868 58.252C60.776 58.16 60.73 58.068 60.73 57.976H60.684L60.638 58.022L60.546 58.298C60.546 58.3287 60.5613 58.39 60.592 58.482C60.6227 58.574 60.6227 58.6507 60.592 58.712C60.6533 58.7733 60.684 58.85 60.684 58.942C60.684 59.0033 60.7147 59.0493 60.776 59.08C60.8067 59.172 60.8373 59.264 60.868 59.356C60.9293 59.448 60.9753 59.54 61.006 59.632C61.006 59.6627 61.0827 59.724 61.236 59.816C61.3893 59.8773 61.466 59.9387 61.466 60C61.4967 60.0307 61.5273 60.0613 61.558 60.092C61.6193 60.1227 61.65 60.1687 61.65 60.23C61.6807 60.2607 61.7113 60.3067 61.742 60.368C61.7727 60.4293 61.788 60.4907 61.788 60.552C61.8493 60.552 61.8953 60.5673 61.926 60.598C61.9567 60.6593 62.0333 60.7513 62.156 60.874C62.2787 61.0273 62.3707 61.1193 62.432 61.15C62.4627 61.15 62.478 61.1347 62.478 61.104C62.478 61.104 62.4933 61.104 62.524 61.104C62.5853 61.1347 62.662 61.196 62.754 61.288C62.846 61.4107 62.9073 61.472 62.938 61.472C62.9993 61.472 63.03 61.472 63.03 61.472C63.2753 61.5027 63.5207 61.5333 63.766 61.564C64.0113 61.6253 64.2567 61.6713 64.502 61.702C64.5327 61.702 64.5787 61.7173 64.64 61.748C64.7013 61.8093 64.778 61.84 64.87 61.84C65.1153 61.8707 65.4067 61.886 65.744 61.886C66.112 61.886 66.3573 61.886 66.48 61.886L66.526 61.932ZM88.0141 60.092C87.2474 60.092 86.5728 59.8773 85.9901 59.448C85.4074 59.0187 85.1161 58.2827 85.1161 57.24C85.1161 56.8413 85.1621 56.4427 85.2541 56.044C85.3461 55.6147 85.4534 55.2007 85.5761 54.802C85.6374 54.4033 85.7294 54.0507 85.8521 53.744C85.8828 53.6213 85.8981 53.56 85.8981 53.56C85.9288 53.5293 86.0054 53.4833 86.1281 53.422L86.4961 52.87V52.686C86.4654 52.686 86.4501 52.686 86.4501 52.686C86.4501 52.6553 86.4501 52.64 86.4501 52.64C86.4501 52.548 86.5268 52.4407 86.6801 52.318C86.8334 52.1953 86.9101 52.134 86.9101 52.134C86.9408 51.9807 86.9868 51.904 87.0481 51.904C87.1094 51.904 87.1861 51.858 87.2781 51.766H87.7841V51.674C87.7841 51.5207 87.7074 51.4593 87.5541 51.49C87.4314 51.49 87.3701 51.4747 87.3701 51.444C87.3701 51.4133 87.4161 51.352 87.5081 51.26C87.6308 51.1373 87.7074 51.0607 87.7381 51.03C87.8301 50.9073 87.9068 50.8 87.9681 50.708C88.0294 50.5853 88.1214 50.4933 88.2441 50.432C88.7961 49.7573 89.1334 49.328 89.2561 49.144C89.4094 48.96 89.5628 48.822 89.7161 48.73C89.7774 48.73 89.8234 48.7607 89.8541 48.822C89.9154 48.8527 89.9154 48.8987 89.8541 48.96C89.9154 49.052 89.9614 49.0673 89.9921 49.006C90.0534 48.9447 90.0841 48.914 90.0841 48.914L90.2681 48.822C90.2068 48.7607 90.1761 48.684 90.1761 48.592C90.1761 48.4387 90.2068 48.316 90.2681 48.224C90.3294 48.1013 90.4368 47.9787 90.5901 47.856C90.7741 47.7333 90.8661 47.6567 90.8661 47.626C91.0501 47.5647 91.1881 47.5033 91.2801 47.442C91.4028 47.3807 91.5254 47.35 91.6481 47.35C91.8628 47.35 92.0774 47.4267 92.2921 47.58C92.8748 47.8867 93.3654 48.1933 93.7641 48.5C94.1628 48.8067 94.3621 49.236 94.3621 49.788C94.3621 50.3707 94.1168 50.8767 93.6261 51.306C93.1661 51.7047 92.5988 52.042 91.9241 52.318C91.2494 52.594 90.5748 52.824 89.9001 53.008C89.2561 53.1613 88.7501 53.284 88.3821 53.376C88.1674 53.4067 88.0601 53.4987 88.0601 53.652C88.0908 53.7747 88.0754 53.9127 88.0141 54.066L87.6921 54.572L87.4161 55.216L87.1861 55.63C86.9714 55.814 86.8948 55.952 86.9561 56.044C87.0174 56.136 87.1248 56.1207 87.2781 55.998C87.3088 56.0287 87.3241 56.0747 87.3241 56.136C87.3241 56.2587 87.2934 56.412 87.2321 56.596C87.1708 56.7493 87.1248 56.872 87.0941 56.964C87.0634 57.0867 87.0634 57.148 87.0941 57.148C87.1554 57.1173 87.1861 57.1787 87.1861 57.332L87.2321 57.976C87.4161 58.5587 87.8301 58.896 88.4741 58.988C88.5354 58.988 88.5968 59.0033 88.6581 59.034C88.7501 59.034 88.8268 59.034 88.8881 59.034C89.4401 59.034 89.7314 58.988 89.7621 58.896C89.8234 58.804 89.9001 58.7427 89.9921 58.712C90.2681 58.6507 90.4981 58.5893 90.6821 58.528C90.8968 58.4667 91.1114 58.3747 91.3261 58.252C91.6941 58.0987 92.0468 57.8993 92.3841 57.654C92.7214 57.4087 93.0741 57.1633 93.4421 56.918L93.9021 56.596C93.9328 56.5347 93.9328 56.4887 93.9021 56.458C93.8714 56.4273 93.8714 56.3967 93.9021 56.366C93.9634 56.3353 94.0094 56.3353 94.0401 56.366C94.1014 56.366 94.1474 56.3507 94.1781 56.32C94.2394 56.2893 94.3008 56.2433 94.3621 56.182C94.4234 56.09 94.4848 56.0133 94.5461 55.952C94.6074 55.8907 94.6381 55.8293 94.6381 55.768C94.6688 55.7067 94.7148 55.6453 94.7761 55.584C95.0214 55.3387 95.2668 55.078 95.5121 54.802C95.7881 54.526 96.0181 54.2807 96.2021 54.066C96.4168 53.7593 96.5854 53.606 96.7081 53.606C96.7694 53.606 96.8001 53.6367 96.8001 53.698C96.8001 53.8513 96.6928 54.0813 96.4781 54.388C95.9568 55.1547 95.3588 55.906 94.6841 56.642C94.0094 57.3473 93.2734 57.9913 92.4761 58.574C91.8934 58.9727 91.2034 59.3253 90.4061 59.632C89.6088 59.9387 88.8114 60.092 88.0141 60.092ZM88.7041 52.686C89.1641 52.6553 89.7621 52.5327 90.4981 52.318C91.2341 52.0727 91.8474 51.7507 92.3381 51.352C92.8594 50.9227 93.1201 50.4473 93.1201 49.926C93.1201 49.4353 92.8594 48.96 92.3381 48.5C91.9088 48.8067 91.4334 49.2513 90.9121 49.834C90.4214 50.386 89.9768 50.938 89.5781 51.49C89.1794 52.0113 88.8881 52.41 88.7041 52.686ZM99.6374 60.184C99.6067 60.184 99.5607 60.1533 99.4994 60.092C99.438 60.0613 99.392 60.046 99.3614 60.046C99.2387 60.0767 99.1314 60.092 99.0394 60.092C98.9474 60.092 98.8554 60.092 98.7634 60.092C98.7327 60.092 98.702 60.0767 98.6714 60.046C98.6714 60.0153 98.656 60 98.6254 60C98.5947 60 98.5794 60 98.5794 60C98.61 60.0307 98.61 60.046 98.5794 60.046C98.5794 60.046 98.5487 60.0307 98.4874 60C98.426 59.9693 98.38 59.954 98.3494 59.954L98.3034 59.908C98.242 59.908 98.196 59.8927 98.1654 59.862C98.1654 59.8313 98.15 59.816 98.1194 59.816L98.0734 59.862L98.0274 59.816C97.966 59.7853 97.874 59.7547 97.7514 59.724C97.6594 59.6627 97.5827 59.6167 97.5214 59.586C97.46 59.586 97.3834 59.54 97.2914 59.448H97.1994C97.138 59.356 97.0307 59.2947 96.8774 59.264C96.8774 59.2333 96.862 59.2027 96.8314 59.172H96.7854C96.724 59.08 96.678 59.0493 96.6474 59.08C96.6167 59.0187 96.5707 58.9727 96.5094 58.942C96.4787 58.8807 96.4327 58.8347 96.3714 58.804C96.3714 58.6813 96.3407 58.62 96.2794 58.62C96.2794 58.5587 96.218 58.4667 96.0954 58.344C96.0034 58.2213 95.942 58.114 95.9114 58.022L95.8654 57.976C95.7427 57.8533 95.6507 57.654 95.5894 57.378C95.5587 57.2553 95.528 57.2093 95.4974 57.24C95.4974 57.2707 95.482 57.194 95.4514 57.01C95.4514 56.9793 95.4514 56.9333 95.4514 56.872C95.482 56.78 95.482 56.7187 95.4514 56.688C95.4514 56.6573 95.436 56.642 95.4054 56.642C95.4054 56.6113 95.4054 56.5807 95.4054 56.55C95.3747 56.5193 95.3594 56.504 95.3594 56.504C95.39 56.4733 95.4054 56.458 95.4054 56.458C95.4054 56.3967 95.39 56.366 95.3594 56.366C95.3594 56.3353 95.3594 56.3047 95.3594 56.274V56.182C95.3594 56.0287 95.39 55.9213 95.4514 55.86C95.4514 55.7987 95.4667 55.7527 95.4974 55.722C95.528 55.6913 95.5434 55.6607 95.5434 55.63C95.5434 55.5687 95.574 55.538 95.6354 55.538C95.6967 55.538 95.7274 55.5227 95.7274 55.492C95.7274 55.4307 95.7427 55.4 95.7734 55.4C95.8347 55.3693 95.8807 55.3387 95.9114 55.308C95.9114 55.2773 95.9267 55.2467 95.9574 55.216C96.0187 55.1853 96.0494 55.1547 96.0494 55.124C96.2027 55.032 96.3714 54.986 96.5554 54.986C96.9234 54.986 97.1074 55.078 97.1074 55.262C97.1074 55.3233 97.0154 55.4307 96.8314 55.584C96.8007 55.676 96.7854 55.7373 96.7854 55.768C96.816 55.768 96.8007 55.7987 96.7394 55.86C96.77 55.952 96.7854 56.0747 96.7854 56.228C96.7547 56.228 96.7394 56.274 96.7394 56.366C96.77 56.4273 96.7854 56.458 96.7854 56.458C96.7854 56.4887 96.8007 56.5807 96.8314 56.734C96.8927 56.8873 96.9387 56.9793 96.9694 57.01C96.9694 57.01 97 57.0867 97.0614 57.24C97.1227 57.3627 97.1534 57.4393 97.1534 57.47V57.562C97.2147 57.654 97.2454 57.7153 97.2454 57.746C97.276 57.746 97.3987 57.8073 97.6134 57.93C97.644 57.9607 97.7054 57.976 97.7974 57.976C97.9507 58.068 98.058 58.1447 98.1194 58.206C98.2114 58.2673 98.426 58.3287 98.7634 58.39C98.886 58.4207 98.932 58.4513 98.9014 58.482C98.9014 58.482 98.9627 58.482 99.0854 58.482C99.0854 58.482 99.0854 58.4973 99.0854 58.528C99.0854 58.528 99.1007 58.528 99.1314 58.528C99.1927 58.4973 99.254 58.4973 99.3154 58.528C99.3767 58.528 99.438 58.5127 99.4994 58.482H99.6834C99.898 58.482 100.128 58.4513 100.373 58.39L101.063 58.206C101.278 58.1753 101.477 58.114 101.661 58.022C101.845 57.93 102.014 57.838 102.167 57.746C102.198 57.746 102.29 57.7 102.443 57.608C102.597 57.4853 102.781 57.3627 102.995 57.24C102.965 57.148 102.949 57.0253 102.949 56.872C102.949 56.78 102.995 56.734 103.087 56.734C103.179 56.7033 103.241 56.6573 103.271 56.596C103.179 56.5347 103.057 56.504 102.903 56.504C102.781 56.504 102.735 56.458 102.765 56.366C102.643 55.6913 102.459 55.078 102.213 54.526C101.999 53.974 101.738 53.3607 101.431 52.686C101.401 52.594 101.339 52.4407 101.247 52.226C101.155 52.0113 101.094 51.8427 101.063 51.72C101.063 51.6893 101.094 51.6893 101.155 51.72C101.217 51.72 101.232 51.7047 101.201 51.674C101.171 51.5207 101.14 51.3673 101.109 51.214C101.109 51.0607 101.094 50.9227 101.063 50.8C101.033 50.7387 101.063 50.6927 101.155 50.662C101.247 50.6313 101.278 50.5853 101.247 50.524C101.217 50.4627 101.155 50.4473 101.063 50.478C100.971 50.5087 100.91 50.4933 100.879 50.432L100.741 49.88C100.741 49.7267 100.711 49.6347 100.649 49.604C100.619 49.5733 100.649 49.512 100.741 49.42C100.803 49.3893 100.833 49.3433 100.833 49.282C100.833 49.19 100.849 49.1287 100.879 49.098C101.033 49.006 101.094 48.8987 101.063 48.776C101.033 48.6227 101.063 48.4847 101.155 48.362C101.247 48.2393 101.324 48.132 101.385 48.04C101.447 47.9173 101.539 47.8407 101.661 47.81C101.753 47.7487 101.784 47.764 101.753 47.856C101.723 47.948 101.723 47.994 101.753 47.994C101.907 47.994 101.968 47.9173 101.937 47.764C101.907 47.6107 101.953 47.4727 102.075 47.35C102.29 47.166 102.612 47.0127 103.041 46.89C103.471 46.7673 103.793 46.6907 104.007 46.66C104.069 46.66 104.115 46.66 104.145 46.66C104.207 46.6293 104.253 46.614 104.283 46.614C104.437 46.614 104.59 46.6293 104.743 46.66C104.927 46.6907 105.096 46.7213 105.249 46.752C105.372 46.7827 105.556 46.9053 105.801 47.12C106.047 47.304 106.231 47.35 106.353 47.258C106.629 47.0127 106.921 46.798 107.227 46.614C107.565 46.43 107.779 46.3533 107.871 46.384C108.117 46.4147 108.331 46.4913 108.515 46.614C108.699 46.706 108.761 47.0127 108.699 47.534C108.669 47.718 108.592 47.8713 108.469 47.994C108.377 48.086 108.285 48.2087 108.193 48.362L107.871 48.822C107.749 49.0367 107.595 49.2513 107.411 49.466C107.258 49.6807 107.12 49.8187 106.997 49.88C106.875 49.9413 106.752 50.0487 106.629 50.202C106.537 50.3247 106.415 50.4473 106.261 50.57C106.108 50.6927 105.939 50.7847 105.755 50.846C105.602 50.8767 105.495 50.9073 105.433 50.938C105.341 50.9687 105.203 50.984 105.019 50.984C104.866 50.9533 104.82 50.892 104.881 50.8C104.943 50.7693 104.958 50.7387 104.927 50.708C104.897 50.6467 104.881 50.6007 104.881 50.57C104.881 50.5087 104.912 50.4627 104.973 50.432C105.065 50.4013 105.127 50.3553 105.157 50.294C105.188 50.2633 105.265 50.156 105.387 49.972C105.541 49.788 105.602 49.6807 105.571 49.65C105.571 49.558 105.602 49.4813 105.663 49.42C105.663 49.3587 105.663 49.3127 105.663 49.282C105.663 49.2207 105.694 49.1747 105.755 49.144C105.878 49.1133 105.939 49.0673 105.939 49.006V48.454C105.939 48.3313 105.924 48.2087 105.893 48.086C105.893 47.9633 105.863 47.856 105.801 47.764C105.556 47.4573 105.157 47.304 104.605 47.304C104.207 47.304 103.823 47.396 103.455 47.58C103.057 47.764 102.719 48.0707 102.443 48.5C102.229 48.8067 102.121 49.1287 102.121 49.466C102.121 49.7113 102.167 49.9567 102.259 50.202C102.382 50.4473 102.489 50.6773 102.581 50.892C102.673 51.1067 102.796 51.3673 102.949 51.674C103.133 51.9807 103.271 52.226 103.363 52.41C103.517 52.6553 103.685 52.9467 103.869 53.284C104.053 53.5907 104.191 53.882 104.283 54.158C104.314 54.1887 104.283 54.2193 104.191 54.25C104.13 54.25 104.115 54.2807 104.145 54.342C104.176 54.4033 104.222 54.434 104.283 54.434C104.345 54.434 104.391 54.4647 104.421 54.526C104.483 54.618 104.483 54.6947 104.421 54.756C104.391 54.8173 104.391 54.9093 104.421 55.032C104.421 55.0627 104.452 55.0933 104.513 55.124C104.575 55.1547 104.605 55.1853 104.605 55.216C104.759 55.6147 104.835 55.9367 104.835 56.182C105.111 56.0287 105.418 55.8447 105.755 55.63C106.093 55.4153 106.277 55.216 106.307 55.032C106.338 54.9707 106.384 54.9553 106.445 54.986C106.537 54.986 106.583 55.0167 106.583 55.078C106.553 55.2927 106.292 55.584 105.801 55.952C105.341 56.32 104.989 56.5807 104.743 56.734C104.774 56.7647 104.759 56.8413 104.697 56.964C104.636 57.0867 104.621 57.1787 104.651 57.24C104.651 57.2707 104.636 57.3167 104.605 57.378C104.575 57.4087 104.544 57.4547 104.513 57.516C104.513 57.6387 104.483 57.7307 104.421 57.792V57.884L104.283 57.976C104.253 58.0067 104.207 58.0833 104.145 58.206C104.115 58.298 104.069 58.3747 104.007 58.436H103.869C103.808 58.4973 103.777 58.574 103.777 58.666C103.716 58.758 103.578 58.8653 103.363 58.988C103.149 59.08 103.011 59.172 102.949 59.264C102.949 59.264 102.934 59.264 102.903 59.264C102.873 59.264 102.827 59.2947 102.765 59.356H102.627C102.597 59.356 102.566 59.3867 102.535 59.448C102.505 59.4787 102.474 59.5093 102.443 59.54C102.351 59.54 102.305 59.5707 102.305 59.632C102.183 59.632 102.091 59.6473 102.029 59.678L101.569 59.77C101.447 59.8927 101.339 59.954 101.247 59.954L101.201 59.908C101.14 59.9693 101.094 60 101.063 60H100.879C100.849 60 100.818 60.0153 100.787 60.046C100.757 60.0767 100.726 60.092 100.695 60.092H100.603C100.573 60.092 100.542 60.092 100.511 60.092C100.511 60.1227 100.481 60.138 100.419 60.138C100.327 60.138 100.189 60.138 100.005 60.138C99.852 60.138 99.7294 60.1533 99.6374 60.184ZM99.1774 59.77C99.1774 59.77 99.208 59.77 99.2694 59.77C99.3614 59.7393 99.4227 59.724 99.4534 59.724C99.6067 59.724 99.7447 59.7393 99.8674 59.77C99.99 59.77 100.113 59.77 100.235 59.77C100.297 59.77 100.327 59.7393 100.327 59.678H100.419C100.511 59.586 100.557 59.5707 100.557 59.632C100.588 59.6933 100.634 59.6933 100.695 59.632C100.757 59.632 100.787 59.6167 100.787 59.586L100.971 59.494C101.002 59.494 101.017 59.494 101.017 59.494C101.017 59.4633 101.033 59.448 101.063 59.448H101.155C101.217 59.448 101.278 59.4173 101.339 59.356C101.401 59.2947 101.431 59.264 101.431 59.264C101.431 59.264 101.477 59.218 101.569 59.126C101.569 59.126 101.585 59.126 101.615 59.126C101.646 59.0953 101.677 59.08 101.707 59.08C101.769 59.0187 101.83 58.988 101.891 58.988C101.891 58.9573 101.922 58.9267 101.983 58.896C102.045 58.8347 102.075 58.804 102.075 58.804C102.106 58.7733 102.137 58.758 102.167 58.758C102.229 58.7273 102.259 58.6967 102.259 58.666C102.321 58.666 102.443 58.5587 102.627 58.344C102.811 58.1293 102.934 57.8687 102.995 57.562C102.995 57.5007 102.903 57.5467 102.719 57.7C102.535 57.8227 102.443 57.884 102.443 57.884C102.351 57.9147 102.259 57.976 102.167 58.068C102.075 58.1293 101.999 58.16 101.937 58.16C101.907 58.16 101.861 58.1907 101.799 58.252C101.769 58.2827 101.738 58.298 101.707 58.298C101.677 58.298 101.661 58.3133 101.661 58.344C101.661 58.344 101.631 58.3287 101.569 58.298C101.539 58.3593 101.447 58.4207 101.293 58.482C101.14 58.5433 101.033 58.574 100.971 58.574H100.833L100.787 58.62C100.787 58.62 100.772 58.6353 100.741 58.666C100.711 58.666 100.68 58.666 100.649 58.666L100.327 58.712H100.281C100.251 58.712 100.22 58.7273 100.189 58.758C100.067 58.758 99.9287 58.7733 99.7754 58.804C99.622 58.8347 99.53 58.85 99.4994 58.85H99.4534C99.4534 58.8193 99.438 58.804 99.4074 58.804V58.85H99.1774C99.0854 58.85 98.978 58.8347 98.8554 58.804C98.7634 58.7427 98.6867 58.712 98.6254 58.712C98.5947 58.712 98.5794 58.7273 98.5794 58.758C98.5794 58.758 98.564 58.758 98.5334 58.758H98.4414C98.4107 58.758 98.3954 58.7427 98.3954 58.712H98.1654C98.1654 58.62 98.1347 58.6047 98.0734 58.666H98.0274C97.9047 58.666 97.7974 58.62 97.7054 58.528C97.644 58.436 97.5367 58.39 97.3834 58.39L97.2454 58.252C97.2454 58.2827 97.23 58.3133 97.1994 58.344C97.1994 58.344 97.1994 58.3593 97.1994 58.39C97.1994 58.39 97.2147 58.4207 97.2454 58.482C97.3067 58.5127 97.3374 58.5433 97.3374 58.574L97.4294 58.758L97.6134 58.988L97.7054 59.08C97.736 59.1107 97.7514 59.126 97.7514 59.126C97.782 59.126 97.8127 59.1567 97.8434 59.218C97.9047 59.218 97.9354 59.264 97.9354 59.356C98.4567 59.632 98.8707 59.77 99.1774 59.77ZM115.253 45.648C115.161 45.648 115.069 45.6173 114.977 45.556C114.915 45.4947 114.823 45.418 114.701 45.326C114.639 45.2953 114.563 45.2647 114.471 45.234C114.409 45.1727 114.379 45.0807 114.379 44.958C114.348 44.9273 114.287 44.912 114.195 44.912C114.041 44.912 113.965 44.8047 113.965 44.59C113.965 44.3447 114.087 44.176 114.333 44.084L114.563 43.9V43.946L114.747 43.716H114.839C115.023 43.716 115.145 43.624 115.207 43.44C115.299 43.256 115.483 43.1333 115.759 43.072C115.943 43.0107 116.096 43.026 116.219 43.118C116.341 43.21 116.495 43.256 116.679 43.256C116.863 43.256 117.062 43.1947 117.277 43.072L117.967 42.934C118.059 42.934 118.105 42.9647 118.105 43.026C118.105 43.0873 118.013 43.164 117.829 43.256C117.675 43.348 117.568 43.4247 117.507 43.486L117.461 43.532L117.415 43.624L117.231 43.854C117.047 44.0687 116.832 44.3293 116.587 44.636C116.372 44.912 116.142 45.142 115.897 45.326C115.621 45.5407 115.406 45.648 115.253 45.648ZM108.261 60.138C108.077 60.138 107.985 60.0307 107.985 59.816C107.985 59.6627 108.031 59.4787 108.123 59.264C108.368 58.7427 108.644 58.0067 108.951 57.056C109.288 56.1053 109.702 55.2927 110.193 54.618C110.53 53.9433 110.837 53.284 111.113 52.64C111.419 51.9653 111.711 51.2907 111.987 50.616C111.987 50.616 111.956 50.6007 111.895 50.57C111.864 50.5087 111.849 50.4473 111.849 50.386C111.665 50.2633 111.465 50.0947 111.251 49.88C111.067 49.6347 111.051 49.3893 111.205 49.144C111.266 49.0827 111.312 49.052 111.343 49.052C111.373 49.052 111.389 49.052 111.389 49.052C111.389 49.0213 111.373 49.006 111.343 49.006C111.343 48.9753 111.343 48.96 111.343 48.96C111.343 48.8373 111.404 48.7607 111.527 48.73C111.649 48.6993 111.711 48.6533 111.711 48.592C111.772 48.1627 112.14 47.8407 112.815 47.626C113.489 47.4113 114.087 47.304 114.609 47.304C115.13 47.304 115.391 47.3807 115.391 47.534C115.391 47.5953 115.299 47.7027 115.115 47.856C115.023 47.9173 114.869 48.0553 114.655 48.27C114.44 48.4847 114.241 48.7453 114.057 49.052L113.689 49.604C113.658 49.6653 113.612 49.742 113.551 49.834C113.52 49.8953 113.474 49.9567 113.413 50.018C112.922 50.9073 112.523 51.6587 112.217 52.272C111.91 52.8853 111.542 53.6673 111.113 54.618C111.051 54.802 111.021 54.9247 111.021 54.986C111.021 55.2007 111.143 55.308 111.389 55.308C111.573 55.308 111.757 55.262 111.941 55.17L112.401 54.986C113.137 54.3113 113.903 53.744 114.701 53.284C114.731 53.284 114.747 53.284 114.747 53.284C114.777 53.2533 114.808 53.238 114.839 53.238C114.931 53.238 114.992 53.2993 115.023 53.422C115.053 53.514 115.023 53.5907 114.931 53.652C114.041 54.1427 113.213 54.7713 112.447 55.538C112.416 55.5993 112.385 55.6607 112.355 55.722C112.324 55.7833 112.278 55.8447 112.217 55.906C112.155 55.9673 112.063 56.0747 111.941 56.228C111.849 56.3813 111.803 56.4733 111.803 56.504C111.772 56.596 111.726 56.6267 111.665 56.596C111.634 56.5653 111.542 56.6113 111.389 56.734C111.358 56.7647 111.327 56.826 111.297 56.918C111.297 57.01 111.281 57.0867 111.251 57.148C111.22 57.24 111.159 57.3167 111.067 57.378C111.005 57.4087 110.975 57.4393 110.975 57.47C110.944 57.5927 110.883 57.6693 110.791 57.7C110.729 57.7 110.668 57.7307 110.607 57.792C110.576 57.8227 110.576 57.8687 110.607 57.93C110.637 57.9913 110.622 58.0527 110.561 58.114C110.53 58.206 110.499 58.252 110.469 58.252C110.438 58.2213 110.392 58.2367 110.331 58.298C110.208 58.4207 110.116 58.482 110.055 58.482C109.871 58.5433 109.794 58.5893 109.825 58.62C109.886 58.6507 109.932 58.6813 109.963 58.712C110.024 58.712 109.978 58.758 109.825 58.85C109.763 58.8807 109.702 58.9727 109.641 59.126C109.579 59.2487 109.518 59.3407 109.457 59.402C109.365 59.4633 109.273 59.5093 109.181 59.54C109.119 59.5707 109.043 59.632 108.951 59.724C108.675 60 108.445 60.138 108.261 60.138ZM113.826 73.478C112.814 73.478 111.986 73.2787 111.342 72.88C110.698 72.4813 110.376 71.8987 110.376 71.132C110.407 71.1013 110.438 70.9633 110.468 70.718C110.499 70.5033 110.499 70.3653 110.468 70.304L110.652 69.936C110.775 69.7213 110.882 69.5833 110.974 69.522H111.02V69.476C111.02 69.4147 111.036 69.338 111.066 69.246C111.097 69.1847 111.128 69.1387 111.158 69.108L111.342 68.786L111.664 68.648H111.71V68.602C111.68 68.51 111.818 68.3107 112.124 68.004C112.4 67.6973 112.722 67.3753 113.09 67.038C113.458 66.7007 113.719 66.486 113.872 66.394L114.654 65.75C114.746 65.658 114.869 65.566 115.022 65.474C115.145 65.4127 115.252 65.3667 115.344 65.336C115.436 65.244 115.528 65.152 115.62 65.06C115.743 64.9987 115.85 64.9373 115.942 64.876C116.004 64.8147 116.08 64.7533 116.172 64.692C116.295 64.6307 116.402 64.5847 116.494 64.554C116.525 64.4927 116.602 64.4313 116.724 64.37C116.786 64.3087 116.847 64.2627 116.908 64.232C117 64.2013 117.062 64.1707 117.092 64.14L118.058 63.588C118.61 63.2507 118.963 63.036 119.116 62.944C119.27 62.852 119.454 62.7447 119.668 62.622C119.73 62.5607 119.806 62.4993 119.898 62.438C120.021 62.4073 120.006 62.3767 119.852 62.346C119.178 62.07 118.641 61.7633 118.242 61.426L118.15 61.288L118.058 61.196C118.028 61.104 117.982 61.058 117.92 61.058H117.874C117.782 61.058 117.706 61.0273 117.644 60.966C117.522 60.9047 117.368 60.7973 117.184 60.644C117.031 60.4907 116.924 60.368 116.862 60.276C116.832 60.184 116.786 60.092 116.724 60C116.663 59.908 116.617 59.8007 116.586 59.678C116.556 59.678 116.51 59.632 116.448 59.54C116.387 59.4787 116.356 59.3713 116.356 59.218C116.326 59.1567 116.31 59.1107 116.31 59.08C116.31 59.0187 116.295 58.9727 116.264 58.942C116.234 58.8807 116.218 58.804 116.218 58.712C116.218 58.62 116.218 58.5433 116.218 58.482V58.298C116.188 58.206 116.172 58.068 116.172 57.884C116.172 57.608 116.249 57.3167 116.402 57.01C116.464 56.9487 116.494 56.9027 116.494 56.872C116.617 56.5653 116.985 56.412 117.598 56.412C117.69 56.412 117.782 56.4273 117.874 56.458C117.997 56.458 118.104 56.458 118.196 56.458H118.656C118.656 56.458 118.672 56.458 118.702 56.458C118.733 56.4273 118.764 56.412 118.794 56.412C118.794 56.412 118.81 56.412 118.84 56.412C118.871 56.3813 118.902 56.366 118.932 56.366L119.07 56.412C119.101 56.412 119.147 56.4273 119.208 56.458C119.27 56.458 119.316 56.458 119.346 56.458H119.484L119.3 56.366V56.228C119.3 56.0747 119.27 55.9367 119.208 55.814C119.147 55.6913 119.086 55.5993 119.024 55.538C119.086 55.4767 119.116 55.4153 119.116 55.354C119.116 55.2927 119.086 55.216 119.024 55.124C118.994 55.0013 118.963 54.894 118.932 54.802C119.055 54.7407 119.086 54.6487 119.024 54.526C119.024 54.4953 119.009 54.4493 118.978 54.388C118.948 54.3267 118.932 54.2653 118.932 54.204V53.606L119.3 53.008C119.331 52.9773 119.331 52.9313 119.3 52.87C119.3 52.778 119.316 52.7013 119.346 52.64C119.377 52.5173 119.438 52.41 119.53 52.318C119.653 52.226 119.73 52.1187 119.76 51.996C119.791 51.9653 119.806 51.858 119.806 51.674C119.99 51.582 120.19 51.3673 120.404 51.03C120.435 50.9993 120.45 50.938 120.45 50.846C120.481 50.754 120.512 50.6927 120.542 50.662C120.696 50.5087 120.864 50.3553 121.048 50.202C121.232 50.0487 121.432 49.8647 121.646 49.65C121.646 49.558 121.57 49.4967 121.416 49.466C121.263 49.4047 121.14 49.3433 121.048 49.282C120.926 49.19 120.772 49.098 120.588 49.006C120.435 48.8833 120.328 48.822 120.266 48.822C120.205 48.822 120.159 48.8373 120.128 48.868C120.128 48.868 120.113 48.868 120.082 48.868C119.99 48.7147 119.883 48.592 119.76 48.5C119.668 48.3773 119.561 48.27 119.438 48.178C119.438 48.1167 119.454 48.0707 119.484 48.04C119.515 47.9787 119.53 47.9173 119.53 47.856C119.53 47.7947 119.484 47.7333 119.392 47.672C119.331 47.58 119.3 47.488 119.3 47.396C119.3 47.3347 119.362 47.1967 119.484 46.982C119.607 46.7673 119.699 46.66 119.76 46.66C119.883 46.66 119.99 46.7367 120.082 46.89C120.205 47.0433 120.266 47.1967 120.266 47.35C120.328 47.3807 120.389 47.396 120.45 47.396C120.542 47.396 120.604 47.4113 120.634 47.442C120.757 47.5953 120.972 47.8253 121.278 48.132C121.585 48.408 121.846 48.5767 122.06 48.638C122.06 48.6687 122.122 48.6533 122.244 48.592C122.398 48.5 122.52 48.454 122.612 48.454C122.674 48.454 122.72 48.4387 122.75 48.408C122.812 48.3467 122.873 48.316 122.934 48.316C123.026 48.316 123.072 48.3467 123.072 48.408C123.103 48.4387 123.149 48.454 123.21 48.454C123.333 48.454 123.44 48.3773 123.532 48.224C123.594 48.1933 123.655 48.1473 123.716 48.086C123.808 48.0247 123.9 47.9787 123.992 47.948C124.023 47.948 124.084 47.9633 124.176 47.994C124.299 48.0247 124.391 48.04 124.452 48.04C124.606 48.04 124.728 48.0093 124.82 47.948C124.943 47.8867 125.066 47.856 125.188 47.856C125.311 47.9173 125.388 47.9787 125.418 48.04C125.449 48.0707 125.495 48.1167 125.556 48.178C125.71 48.3007 125.863 48.408 126.016 48.5C126.17 48.592 126.308 48.7453 126.43 48.96C126.492 48.8987 126.63 48.868 126.844 48.868C127.09 48.868 127.381 48.8987 127.718 48.96C128.086 49.0213 128.332 49.0367 128.454 49.006C128.516 49.006 128.562 49.006 128.592 49.006C128.654 48.9753 128.73 48.96 128.822 48.96C128.976 48.96 129.037 48.9907 129.006 49.052C128.976 49.0827 129.006 49.098 129.098 49.098C129.16 49.098 129.298 49.0827 129.512 49.052C129.758 48.9907 129.911 48.96 129.972 48.96C130.034 48.9907 130.064 49.0213 130.064 49.052C130.095 49.0827 130.141 49.1133 130.202 49.144C130.264 49.144 130.386 49.1287 130.57 49.098C130.785 49.0673 130.923 49.052 130.984 49.052C131.506 49.0827 131.981 49.0673 132.41 49.006C132.87 48.914 133.361 48.8527 133.882 48.822C134.005 48.8527 134.066 48.9293 134.066 49.052C134.066 49.1747 134.005 49.236 133.882 49.236C133.852 49.236 133.79 49.2667 133.698 49.328C133.606 49.3587 133.53 49.3587 133.468 49.328H133.192C133.131 49.328 133.054 49.3433 132.962 49.374C132.87 49.374 132.778 49.4047 132.686 49.466C132.656 49.4353 132.594 49.42 132.502 49.42C132.38 49.42 132.242 49.4813 132.088 49.604C131.935 49.7267 131.782 49.8187 131.628 49.88C131.628 49.7267 131.567 49.6653 131.444 49.696C131.352 49.7267 131.26 49.7267 131.168 49.696C131.107 49.696 130.984 49.742 130.8 49.834C130.647 49.8953 130.494 49.9567 130.34 50.018C130.31 49.926 130.202 49.8647 130.018 49.834C129.896 49.834 129.788 49.926 129.696 50.11C129.604 50.294 129.19 50.3707 128.454 50.34C128.516 50.4627 128.546 50.5393 128.546 50.57C128.577 50.6007 128.546 50.6773 128.454 50.8C128.516 50.8307 128.562 50.846 128.592 50.846C128.654 50.846 128.7 50.8613 128.73 50.892C128.73 50.984 128.776 51.0913 128.868 51.214C128.991 51.3367 129.068 51.4593 129.098 51.582C129.16 51.7047 129.19 51.812 129.19 51.904C129.221 51.996 129.236 52.0727 129.236 52.134C129.236 52.226 129.19 52.4407 129.098 52.778C128.976 52.9007 128.822 53.1153 128.638 53.422C128.516 53.5447 128.347 53.7133 128.132 53.928C127.918 54.1427 127.734 54.2653 127.58 54.296C127.55 54.3267 127.519 54.3727 127.488 54.434C127.488 54.4647 127.473 54.5107 127.442 54.572C127.32 54.664 127.12 54.802 126.844 54.986C126.599 55.1393 126.446 55.216 126.384 55.216C126.323 55.216 126.308 55.216 126.338 55.216C126.369 55.1853 126.338 55.17 126.246 55.17C126.185 55.17 126.139 55.1853 126.108 55.216C126.108 55.2467 126.093 55.2773 126.062 55.308H126.016C125.894 55.308 125.74 55.3693 125.556 55.492C125.372 55.584 125.296 55.6913 125.326 55.814C125.173 55.814 125.02 55.8293 124.866 55.86C124.713 55.8907 124.606 55.952 124.544 56.044C124.483 56.0747 124.406 56.1513 124.314 56.274C124.253 56.366 124.161 56.4427 124.038 56.504C123.916 56.5347 123.778 56.5653 123.624 56.596C123.502 56.596 123.394 56.6113 123.302 56.642C123.241 56.6727 123.18 56.7033 123.118 56.734C123.057 56.7647 122.996 56.8107 122.934 56.872C122.873 56.9027 122.796 56.918 122.704 56.918C122.612 56.8873 122.52 56.8873 122.428 56.918C122.398 56.918 122.367 56.9487 122.336 57.01C122.306 57.0407 122.26 57.056 122.198 57.056C122.137 57.056 122.091 57.0407 122.06 57.01C122.03 56.9487 121.984 56.918 121.922 56.918C121.861 56.918 121.83 56.9487 121.83 57.01C121.83 57.0713 121.784 57.102 121.692 57.102C121.631 57.102 121.6 57.102 121.6 57.102C121.631 57.0713 121.6 57.056 121.508 57.056C120.742 57.056 120.312 57.0253 120.22 56.964C120.128 56.9027 120.006 56.8107 119.852 56.688C119.791 56.872 119.699 56.9793 119.576 57.01L119.162 57.148L118.84 57.286L118.426 57.424C118.304 57.4853 118.181 57.5467 118.058 57.608C117.966 57.6387 117.89 57.6693 117.828 57.7L117.644 57.838C117.583 57.8993 117.552 57.9453 117.552 57.976C117.491 58.0067 117.43 58.1447 117.368 58.39C117.338 58.5127 117.292 58.62 117.23 58.712C117.169 58.804 117.138 58.9267 117.138 59.08C117.138 59.2333 117.2 59.4173 117.322 59.632C117.384 59.816 117.46 59.954 117.552 60.046C117.644 60.138 117.89 60.3067 118.288 60.552C118.35 60.5827 118.457 60.6287 118.61 60.69C118.764 60.7513 118.856 60.8127 118.886 60.874C118.978 61.0273 119.055 61.104 119.116 61.104C119.116 61.104 119.162 61.104 119.254 61.104C119.316 61.104 119.377 61.0887 119.438 61.058C119.5 61.058 119.546 61.0887 119.576 61.15C119.76 61.2113 119.944 61.2727 120.128 61.334C120.343 61.426 120.542 61.5027 120.726 61.564L121.324 61.748C122.459 61.1653 123.272 60.7667 123.762 60.552C124.253 60.368 124.744 60.1993 125.234 60.046C125.357 59.9847 125.495 59.9233 125.648 59.862C125.832 59.8007 125.924 59.816 125.924 59.908C125.924 59.9693 125.878 60.046 125.786 60.138C125.694 60.2607 125.572 60.3373 125.418 60.368C125.02 60.4907 124.621 60.6747 124.222 60.92C123.854 61.196 123.226 61.5947 122.336 62.116C124.698 63.0667 125.878 64.2627 125.878 65.704C125.878 65.8267 125.863 65.934 125.832 66.026C125.832 66.118 125.817 66.2253 125.786 66.348C125.756 66.3787 125.648 66.578 125.464 66.946C125.311 67.3447 125.234 67.5593 125.234 67.59C125.081 67.7433 124.928 67.912 124.774 68.096C124.621 68.28 124.468 68.464 124.314 68.648C124.192 68.8013 124.023 68.9547 123.808 69.108C123.624 69.2613 123.44 69.4147 123.256 69.568C123.164 69.7213 122.919 69.9207 122.52 70.166C122.122 70.442 121.723 70.7027 121.324 70.948C120.926 71.1933 120.634 71.3467 120.45 71.408L119.484 71.914C119.392 71.9753 119.27 72.0213 119.116 72.052C118.963 72.1133 118.825 72.1593 118.702 72.19C118.61 72.282 118.503 72.3433 118.38 72.374C118.288 72.4047 118.166 72.4507 118.012 72.512C117.951 72.5733 117.859 72.6193 117.736 72.65C117.614 72.6807 117.506 72.7113 117.414 72.742C117.322 72.834 117.215 72.88 117.092 72.88L116.724 72.972C116.632 73.0027 116.54 73.018 116.448 73.018C116.356 73.0487 116.249 73.0793 116.126 73.11C115.452 73.2633 114.93 73.3707 114.562 73.432C114.44 73.4627 114.332 73.478 114.24 73.478C114.118 73.478 113.98 73.478 113.826 73.478ZM122.612 55.952C122.704 55.7987 122.812 55.722 122.934 55.722C123.026 55.722 123.072 55.7373 123.072 55.768C123.072 55.7987 123.118 55.814 123.21 55.814C123.302 55.814 123.394 55.7833 123.486 55.722C123.578 55.63 123.655 55.584 123.716 55.584C123.839 55.584 123.87 55.5993 123.808 55.63C123.778 55.6607 123.824 55.676 123.946 55.676C124.038 55.676 124.238 55.6147 124.544 55.492C124.851 55.3387 125.081 55.2007 125.234 55.078C125.388 55.0167 125.633 54.848 125.97 54.572C126.308 54.2653 126.553 54.112 126.706 54.112C126.798 54.112 126.86 54.1273 126.89 54.158C126.921 54.1887 126.952 54.204 126.982 54.204C127.013 53.9587 127.166 53.744 127.442 53.56C127.749 53.3453 127.902 53.054 127.902 52.686C127.902 52.3793 127.703 51.9347 127.304 51.352C127.274 51.2907 127.212 51.26 127.12 51.26C127.028 51.2293 126.982 51.1987 126.982 51.168V51.122C126.982 51.0607 126.952 50.984 126.89 50.892C126.86 50.7693 126.829 50.6927 126.798 50.662C126.676 50.6007 126.584 50.5393 126.522 50.478C126.492 50.4167 126.43 50.386 126.338 50.386C126.246 50.386 126.108 50.3707 125.924 50.34C125.771 50.3093 125.664 50.294 125.602 50.294C125.572 50.2327 125.51 50.0947 125.418 49.88C125.326 49.6653 125.188 49.558 125.004 49.558C124.882 49.558 124.759 49.6347 124.636 49.788C124.544 49.9107 124.452 50.018 124.36 50.11C124.299 50.1407 124.192 50.1713 124.038 50.202C123.916 50.2327 123.839 50.2633 123.808 50.294C123.624 50.4167 123.41 50.5853 123.164 50.8C122.95 50.984 122.735 51.122 122.52 51.214C122.428 51.4287 122.26 51.628 122.014 51.812C121.8 51.996 121.6 52.134 121.416 52.226C121.324 52.41 121.202 52.594 121.048 52.778C120.926 52.962 120.834 53.146 120.772 53.33C120.772 53.3607 120.757 53.3913 120.726 53.422C120.726 53.422 120.726 53.4527 120.726 53.514C120.726 53.606 120.726 53.698 120.726 53.79C120.757 53.8513 120.711 53.8973 120.588 53.928V54.664C120.834 54.756 120.941 54.9553 120.91 55.262C121.094 55.2007 121.248 55.216 121.37 55.308V55.538H121.416C121.6 55.538 121.83 55.5993 122.106 55.722C122.382 55.814 122.551 55.8907 122.612 55.952ZM126.292 59.862C126.292 59.862 126.277 59.816 126.246 59.724C126.216 59.632 126.231 59.586 126.292 59.586C126.354 59.6167 126.415 59.632 126.476 59.632C126.538 59.632 126.584 59.632 126.614 59.632C126.676 59.632 126.691 59.6167 126.66 59.586C126.66 59.5553 126.676 59.54 126.706 59.54H126.89L127.028 59.356C127.182 59.356 127.335 59.31 127.488 59.218C127.642 59.126 127.78 59.0493 127.902 58.988C127.964 58.988 128.025 58.988 128.086 58.988C128.178 58.9573 128.27 58.942 128.362 58.942C128.577 58.942 128.73 58.988 128.822 59.08V59.126C128.822 59.1873 128.715 59.2487 128.5 59.31C128.316 59.3407 128.194 59.3867 128.132 59.448C128.071 59.448 128.01 59.4633 127.948 59.494C127.918 59.5247 127.872 59.5553 127.81 59.586C127.78 59.6167 127.734 59.632 127.672 59.632C127.611 59.6013 127.55 59.6013 127.488 59.632C127.396 59.6933 127.243 59.7547 127.028 59.816C126.844 59.8467 126.722 59.862 126.66 59.862C126.599 59.862 126.553 59.862 126.522 59.862C126.522 59.8313 126.446 59.8313 126.292 59.862ZM114.93 72.42C115.022 72.42 115.13 72.3893 115.252 72.328C115.375 72.2667 115.482 72.236 115.574 72.236C116.004 72.1747 116.54 72.098 117.184 72.006C117.828 71.9447 118.442 71.776 119.024 71.5C120.65 70.764 121.8 69.9667 122.474 69.108C123.149 68.2493 123.502 67.4367 123.532 66.67C123.563 66.6087 123.594 66.532 123.624 66.44C123.655 66.3787 123.67 66.3327 123.67 66.302C123.732 66.21 123.747 66.1487 123.716 66.118C123.624 66.0567 123.548 65.9493 123.486 65.796C123.425 65.6733 123.41 65.5507 123.44 65.428C123.41 65.3973 123.333 65.3053 123.21 65.152C123.118 64.9987 123.072 64.8607 123.072 64.738H122.98C122.796 64.646 122.658 64.508 122.566 64.324C122.137 63.864 121.524 63.4347 120.726 63.036C119.776 63.6187 118.81 64.232 117.828 64.876C116.847 65.52 115.958 66.1947 115.16 66.9C114.578 67.3907 114.102 67.866 113.734 68.326C113.366 68.8167 113.09 69.246 112.906 69.614C112.876 69.6753 112.83 69.6907 112.768 69.66C112.707 69.66 112.661 69.6907 112.63 69.752V69.844C112.63 69.9053 112.661 69.982 112.722 70.074C112.784 70.166 112.799 70.2427 112.768 70.304C112.738 70.4573 112.707 70.5953 112.676 70.718C112.646 70.8713 112.63 71.0247 112.63 71.178C112.63 71.3927 112.692 71.5767 112.814 71.73C112.906 71.822 113.044 71.914 113.228 72.006C113.29 72.0367 113.351 72.0673 113.412 72.098C113.443 72.1287 113.489 72.1593 113.55 72.19C113.612 72.2207 113.688 72.2207 113.78 72.19C113.842 72.19 113.918 72.19 114.01 72.19L114.332 72.328C114.424 72.328 114.516 72.3433 114.608 72.374C114.7 72.4353 114.808 72.4507 114.93 72.42ZM132.337 60.138C132.153 60.138 132.061 60.0307 132.061 59.816C132.061 59.6627 132.107 59.4787 132.199 59.264C132.444 58.7427 132.735 58.0067 133.073 57.056C133.41 56.1053 133.824 55.2927 134.315 54.618L136.109 50.616C136.109 50.616 136.078 50.6007 136.017 50.57C135.955 50.5087 135.925 50.4473 135.925 50.386C135.741 50.2633 135.541 50.0947 135.327 49.88C135.143 49.6347 135.127 49.3893 135.281 49.144C135.342 49.0827 135.388 49.052 135.419 49.052C135.449 49.052 135.465 49.052 135.465 49.052V48.96C135.465 48.8373 135.511 48.7607 135.603 48.73C135.725 48.6993 135.802 48.6533 135.833 48.592C135.894 48.1627 136.247 47.8407 136.891 47.626C137.565 47.4113 138.163 47.304 138.685 47.304C139.206 47.304 139.467 47.3807 139.467 47.534C139.467 47.626 139.375 47.7333 139.191 47.856C139.129 47.9173 138.976 48.0553 138.731 48.27C138.516 48.4847 138.317 48.7453 138.133 49.052L137.811 49.604L137.489 50.018C136.998 50.9073 136.599 51.6587 136.293 52.272C135.986 52.8853 135.618 53.6673 135.189 54.618C135.097 54.802 135.051 54.9553 135.051 55.078C135.051 55.2313 135.112 55.308 135.235 55.308C135.296 55.308 135.357 55.2927 135.419 55.262C135.511 55.2007 135.603 55.1547 135.695 55.124C135.94 54.9707 136.139 54.8327 136.293 54.71C136.477 54.5567 136.676 54.4033 136.891 54.25C136.983 54.158 137.059 54.158 137.121 54.25C137.182 54.3113 137.182 54.4033 137.121 54.526C136.998 54.7713 136.906 54.9247 136.845 54.986C136.814 55.0167 136.768 55.0473 136.707 55.078C136.645 55.1087 136.507 55.2467 136.293 55.492L136.109 55.86C136.047 55.9213 135.971 56.044 135.879 56.228C135.817 56.3813 135.787 56.4733 135.787 56.504C135.787 56.5653 135.756 56.596 135.695 56.596C135.633 56.5653 135.541 56.6113 135.419 56.734C135.388 56.7647 135.373 56.826 135.373 56.918C135.403 57.01 135.388 57.0867 135.327 57.148C135.296 57.24 135.25 57.3167 135.189 57.378C135.127 57.4087 135.097 57.4393 135.097 57.47C135.066 57.5927 135.005 57.6693 134.913 57.7C134.851 57.7 134.79 57.7307 134.729 57.792C134.698 57.792 134.683 57.8227 134.683 57.884C134.683 58.1293 134.652 58.2367 134.591 58.206C134.529 58.1753 134.468 58.206 134.407 58.298C134.345 58.4207 134.269 58.482 134.177 58.482C133.993 58.5433 133.916 58.5893 133.947 58.62C133.977 58.6507 134.023 58.6813 134.085 58.712C134.146 58.712 134.1 58.758 133.947 58.85C133.855 58.8807 133.778 58.9727 133.717 59.126C133.655 59.2487 133.594 59.3407 133.533 59.402C133.471 59.4633 133.395 59.5093 133.303 59.54C133.211 59.5707 133.134 59.632 133.073 59.724C132.797 60 132.551 60.138 132.337 60.138ZM146.045 59.77C145.922 59.77 145.815 59.77 145.723 59.77C145.631 59.7393 145.539 59.7087 145.447 59.678C145.14 59.6167 144.864 59.5247 144.619 59.402C144.404 59.2793 144.22 59.0493 144.067 58.712C144.036 58.5587 143.959 58.3593 143.837 58.114C143.745 57.8687 143.683 57.6387 143.653 57.424C143.622 57.2707 143.607 57.0867 143.607 56.872C143.576 56.7187 143.561 56.5193 143.561 56.274C143.499 55.9673 143.469 55.6913 143.469 55.446C143.499 55.2007 143.515 54.9093 143.515 54.572C143.515 54.2347 143.53 53.9893 143.561 53.836C143.622 53.56 143.653 53.422 143.653 53.422C143.653 53.3913 143.653 53.238 143.653 52.962C143.683 52.594 143.699 52.2107 143.699 51.812C143.699 51.4133 143.714 51.0913 143.745 50.846C143.837 49.926 143.653 49.466 143.193 49.466C143.009 49.466 142.763 49.5427 142.457 49.696C142.426 49.788 142.365 49.8493 142.273 49.88C142.211 49.88 142.119 49.9107 141.997 49.972L141.767 50.11C141.767 50.1407 141.736 50.156 141.675 50.156C141.613 50.1253 141.583 50.1407 141.583 50.202C141.613 50.3247 141.598 50.4013 141.537 50.432C141.506 50.4627 141.46 50.4473 141.399 50.386L140.893 50.754C140.893 50.7847 140.847 50.846 140.755 50.938L140.709 50.984C140.586 51.1067 140.479 51.168 140.387 51.168L140.249 51.306C140.249 51.3367 140.218 51.398 140.157 51.49C140.126 51.5513 140.049 51.5667 139.927 51.536L139.697 51.766C139.574 51.95 139.467 52.0573 139.375 52.088C139.313 52.1187 139.237 52.1493 139.145 52.18L138.777 52.64L138.593 52.686C138.593 52.8087 138.455 52.9927 138.179 53.238C137.933 53.4833 137.765 53.652 137.673 53.744C137.581 53.836 137.489 53.882 137.397 53.882C137.335 53.882 137.305 53.8513 137.305 53.79C137.305 53.7593 137.381 53.6367 137.535 53.422C137.657 53.2993 137.841 53.0693 138.087 52.732C138.363 52.3947 138.516 52.2413 138.547 52.272C138.7 52.1187 138.807 51.9653 138.869 51.812C138.93 51.628 139.037 51.4747 139.191 51.352C139.191 51.3827 139.191 51.4133 139.191 51.444C139.221 51.444 139.237 51.444 139.237 51.444C139.298 51.444 139.375 51.3673 139.467 51.214C139.559 51.03 139.62 50.9533 139.651 50.984L140.433 50.294C140.433 50.2633 140.509 50.202 140.663 50.11C140.785 50.0487 140.862 50.018 140.893 50.018C140.923 50.018 141 49.926 141.123 49.742L141.445 49.512C141.475 49.4507 141.506 49.466 141.537 49.558C141.598 49.6193 141.644 49.6347 141.675 49.604L141.813 49.282C141.874 49.19 141.966 49.1133 142.089 49.052C142.242 48.96 142.395 48.868 142.549 48.776C142.917 48.408 143.193 48.224 143.377 48.224H143.561C143.959 48.0707 144.327 47.994 144.665 47.994C145.155 47.994 145.539 48.178 145.815 48.546C145.876 48.638 145.937 48.8067 145.999 49.052C146.06 49.0827 146.075 49.1287 146.045 49.19C146.045 49.2207 146.06 49.2667 146.091 49.328C146.121 49.3893 146.183 49.466 146.275 49.558C146.367 49.6193 146.413 49.696 146.413 49.788V49.88C146.413 50.0027 146.336 50.11 146.183 50.202C146.336 50.3247 146.397 50.4013 146.367 50.432C146.367 50.432 146.351 50.478 146.321 50.57L146.229 51.214C146.198 51.4287 146.152 51.5973 146.091 51.72C146.029 51.812 145.968 51.9807 145.907 52.226C146.029 52.41 146.029 52.5327 145.907 52.594H145.815L145.769 52.778C145.769 52.8393 145.799 52.9007 145.861 52.962L145.723 53.238C145.753 53.2073 145.769 53.2073 145.769 53.238C145.799 53.238 145.815 53.238 145.815 53.238C145.784 53.2993 145.738 53.422 145.677 53.606C145.615 53.7593 145.569 53.882 145.539 53.974C145.508 54.1273 145.447 54.204 145.355 54.204C145.263 54.204 145.232 54.2807 145.263 54.434C145.293 54.4647 145.309 54.572 145.309 54.756C145.339 54.9093 145.324 54.986 145.263 54.986L145.171 55.538V55.676C145.171 55.8293 145.14 55.9827 145.079 56.136C145.048 56.2893 145.017 56.4427 144.987 56.596C144.956 56.7493 144.925 56.918 144.895 57.102C144.895 57.2553 144.895 57.4087 144.895 57.562C144.895 57.6847 144.895 57.8227 144.895 57.976C144.925 58.0987 144.956 58.2213 144.987 58.344C144.987 58.3747 145.033 58.4667 145.125 58.62C145.217 58.7733 145.263 58.8653 145.263 58.896L145.401 59.034C145.462 59.0647 145.554 59.0647 145.677 59.034C145.83 59.0033 145.937 59.0187 145.999 59.08C146.275 59.1107 146.627 58.9727 147.057 58.666C147.517 58.3287 147.931 57.9607 148.299 57.562C148.391 57.47 148.483 57.424 148.575 57.424C148.636 57.424 148.682 57.47 148.713 57.562C148.743 57.654 148.713 57.7767 148.621 57.93C148.13 58.6353 147.67 59.126 147.241 59.402C146.811 59.6473 146.413 59.77 146.045 59.77ZM153.499 60.184C153.468 60.184 153.422 60.1533 153.361 60.092C153.299 60.0613 153.253 60.046 153.223 60.046C153.1 60.0767 152.993 60.092 152.901 60.092C152.809 60.092 152.717 60.092 152.625 60.092C152.594 60.092 152.563 60.0767 152.533 60.046C152.533 60.0153 152.517 60 152.487 60C152.456 60 152.441 60 152.441 60C152.471 60.0307 152.471 60.046 152.441 60.046C152.441 60.046 152.41 60.0307 152.349 60C152.287 59.9693 152.241 59.954 152.211 59.954L152.165 59.908C152.103 59.908 152.057 59.8927 152.027 59.862C152.027 59.8313 152.011 59.816 151.981 59.816L151.935 59.862L151.889 59.816C151.827 59.7853 151.735 59.7547 151.613 59.724C151.521 59.6627 151.444 59.6167 151.383 59.586C151.321 59.586 151.245 59.54 151.153 59.448H151.061C150.999 59.356 150.892 59.2947 150.739 59.264C150.739 59.2333 150.723 59.2027 150.693 59.172H150.647C150.585 59.08 150.539 59.0493 150.509 59.08C150.478 59.0187 150.432 58.9727 150.371 58.942C150.34 58.8807 150.294 58.8347 150.233 58.804C150.233 58.6813 150.202 58.62 150.141 58.62C150.141 58.5587 150.079 58.4667 149.957 58.344C149.865 58.2213 149.803 58.114 149.773 58.022L149.727 57.976C149.604 57.8533 149.512 57.654 149.451 57.378C149.42 57.2553 149.389 57.2093 149.359 57.24C149.359 57.2707 149.343 57.194 149.313 57.01C149.313 56.9793 149.313 56.9333 149.313 56.872C149.343 56.78 149.343 56.7187 149.313 56.688C149.313 56.6573 149.297 56.642 149.267 56.642C149.267 56.6113 149.267 56.5807 149.267 56.55C149.236 56.5193 149.221 56.504 149.221 56.504C149.251 56.4733 149.267 56.458 149.267 56.458C149.267 56.3967 149.251 56.366 149.221 56.366C149.221 56.3353 149.221 56.3047 149.221 56.274V56.182C149.221 56.0287 149.251 55.9213 149.313 55.86C149.313 55.7987 149.328 55.7527 149.359 55.722C149.389 55.6913 149.405 55.6607 149.405 55.63C149.405 55.5687 149.435 55.538 149.497 55.538C149.558 55.538 149.589 55.5227 149.589 55.492C149.589 55.4307 149.604 55.4 149.635 55.4C149.696 55.3693 149.742 55.3387 149.773 55.308C149.773 55.2773 149.788 55.2467 149.819 55.216C149.88 55.1853 149.911 55.1547 149.911 55.124C150.064 55.032 150.233 54.986 150.417 54.986C150.785 54.986 150.969 55.078 150.969 55.262C150.969 55.3233 150.877 55.4307 150.693 55.584C150.662 55.676 150.647 55.7373 150.647 55.768C150.677 55.768 150.662 55.7987 150.601 55.86C150.631 55.952 150.647 56.0747 150.647 56.228C150.616 56.228 150.601 56.274 150.601 56.366C150.631 56.4273 150.647 56.458 150.647 56.458C150.647 56.4887 150.662 56.5807 150.693 56.734C150.754 56.8873 150.8 56.9793 150.831 57.01C150.831 57.01 150.861 57.0867 150.923 57.24C150.984 57.3627 151.015 57.4393 151.015 57.47V57.562C151.076 57.654 151.107 57.7153 151.107 57.746C151.137 57.746 151.26 57.8073 151.475 57.93C151.505 57.9607 151.567 57.976 151.659 57.976C151.812 58.068 151.919 58.1447 151.981 58.206C152.073 58.2673 152.287 58.3287 152.625 58.39C152.747 58.4207 152.793 58.4513 152.763 58.482C152.763 58.482 152.824 58.482 152.947 58.482C152.947 58.482 152.947 58.4973 152.947 58.528C152.947 58.528 152.962 58.528 152.993 58.528C153.054 58.4973 153.115 58.4973 153.177 58.528C153.238 58.528 153.299 58.5127 153.361 58.482H153.545C153.759 58.482 153.989 58.4513 154.235 58.39L154.925 58.206C155.139 58.1753 155.339 58.114 155.523 58.022C155.707 57.93 155.875 57.838 156.029 57.746C156.059 57.746 156.151 57.7 156.305 57.608C156.458 57.4853 156.642 57.3627 156.857 57.24C156.826 57.148 156.811 57.0253 156.811 56.872C156.811 56.78 156.857 56.734 156.949 56.734C157.041 56.7033 157.102 56.6573 157.133 56.596C157.041 56.5347 156.918 56.504 156.765 56.504C156.642 56.504 156.596 56.458 156.627 56.366C156.504 55.6913 156.32 55.078 156.075 54.526C155.86 53.974 155.599 53.3607 155.293 52.686C155.262 52.594 155.201 52.4407 155.109 52.226C155.017 52.0113 154.955 51.8427 154.925 51.72C154.925 51.6893 154.955 51.6893 155.017 51.72C155.078 51.72 155.093 51.7047 155.063 51.674C155.032 51.5207 155.001 51.3673 154.971 51.214C154.971 51.0607 154.955 50.9227 154.925 50.8C154.894 50.7387 154.925 50.6927 155.017 50.662C155.109 50.6313 155.139 50.5853 155.109 50.524C155.078 50.4627 155.017 50.4473 154.925 50.478C154.833 50.5087 154.771 50.4933 154.741 50.432L154.603 49.88C154.603 49.7267 154.572 49.6347 154.511 49.604C154.48 49.5733 154.511 49.512 154.603 49.42C154.664 49.3893 154.695 49.3433 154.695 49.282C154.695 49.19 154.71 49.1287 154.741 49.098C154.894 49.006 154.955 48.8987 154.925 48.776C154.894 48.6227 154.925 48.4847 155.017 48.362C155.109 48.2393 155.185 48.132 155.247 48.04C155.308 47.9173 155.4 47.8407 155.523 47.81C155.615 47.7487 155.645 47.764 155.615 47.856C155.584 47.948 155.584 47.994 155.615 47.994C155.768 47.994 155.829 47.9173 155.799 47.764C155.768 47.6107 155.814 47.4727 155.937 47.35C156.151 47.166 156.473 47.0127 156.903 46.89C157.332 46.7673 157.654 46.6907 157.869 46.66C157.93 46.66 157.976 46.66 158.007 46.66C158.068 46.6293 158.114 46.614 158.145 46.614C158.298 46.614 158.451 46.6293 158.605 46.66C158.789 46.6907 158.957 46.7213 159.111 46.752C159.233 46.7827 159.417 46.9053 159.663 47.12C159.908 47.304 160.092 47.35 160.215 47.258C160.491 47.0127 160.782 46.798 161.089 46.614C161.426 46.43 161.641 46.3533 161.733 46.384C161.978 46.4147 162.193 46.4913 162.377 46.614C162.561 46.706 162.622 47.0127 162.561 47.534C162.53 47.718 162.453 47.8713 162.331 47.994C162.239 48.086 162.147 48.2087 162.055 48.362L161.733 48.822C161.61 49.0367 161.457 49.2513 161.273 49.466C161.119 49.6807 160.981 49.8187 160.859 49.88C160.736 49.9413 160.613 50.0487 160.491 50.202C160.399 50.3247 160.276 50.4473 160.123 50.57C159.969 50.6927 159.801 50.7847 159.617 50.846C159.463 50.8767 159.356 50.9073 159.295 50.938C159.203 50.9687 159.065 50.984 158.881 50.984C158.727 50.9533 158.681 50.892 158.743 50.8C158.804 50.7693 158.819 50.7387 158.789 50.708C158.758 50.6467 158.743 50.6007 158.743 50.57C158.743 50.5087 158.773 50.4627 158.835 50.432C158.927 50.4013 158.988 50.3553 159.019 50.294C159.049 50.2633 159.126 50.156 159.249 49.972C159.402 49.788 159.463 49.6807 159.433 49.65C159.433 49.558 159.463 49.4813 159.525 49.42C159.525 49.3587 159.525 49.3127 159.525 49.282C159.525 49.2207 159.555 49.1747 159.617 49.144C159.739 49.1133 159.801 49.0673 159.801 49.006V48.454C159.801 48.3313 159.785 48.2087 159.755 48.086C159.755 47.9633 159.724 47.856 159.663 47.764C159.417 47.4573 159.019 47.304 158.467 47.304C158.068 47.304 157.685 47.396 157.317 47.58C156.918 47.764 156.581 48.0707 156.305 48.5C156.09 48.8067 155.983 49.1287 155.983 49.466C155.983 49.7113 156.029 49.9567 156.121 50.202C156.243 50.4473 156.351 50.6773 156.443 50.892C156.535 51.1067 156.657 51.3673 156.811 51.674C156.995 51.9807 157.133 52.226 157.225 52.41C157.378 52.6553 157.547 52.9467 157.731 53.284C157.915 53.5907 158.053 53.882 158.145 54.158C158.175 54.1887 158.145 54.2193 158.053 54.25C157.991 54.25 157.976 54.2807 158.007 54.342C158.037 54.4033 158.083 54.434 158.145 54.434C158.206 54.434 158.252 54.4647 158.283 54.526C158.344 54.618 158.344 54.6947 158.283 54.756C158.252 54.8173 158.252 54.9093 158.283 55.032C158.283 55.0627 158.313 55.0933 158.375 55.124C158.436 55.1547 158.467 55.1853 158.467 55.216C158.62 55.6147 158.697 55.9367 158.697 56.182C158.973 56.0287 159.279 55.8447 159.617 55.63C159.954 55.4153 160.138 55.216 160.169 55.032C160.199 54.9707 160.245 54.9553 160.307 54.986C160.399 54.986 160.445 55.0167 160.445 55.078C160.414 55.2927 160.153 55.584 159.663 55.952C159.203 56.32 158.85 56.5807 158.605 56.734C158.635 56.7647 158.62 56.8413 158.559 56.964C158.497 57.0867 158.482 57.1787 158.513 57.24C158.513 57.2707 158.497 57.3167 158.467 57.378C158.436 57.4087 158.405 57.4547 158.375 57.516C158.375 57.6387 158.344 57.7307 158.283 57.792V57.884L158.145 57.976C158.114 58.0067 158.068 58.0833 158.007 58.206C157.976 58.298 157.93 58.3747 157.869 58.436H157.731C157.669 58.4973 157.639 58.574 157.639 58.666C157.577 58.758 157.439 58.8653 157.225 58.988C157.01 59.08 156.872 59.172 156.811 59.264C156.811 59.264 156.795 59.264 156.765 59.264C156.734 59.264 156.688 59.2947 156.627 59.356H156.489C156.458 59.356 156.427 59.3867 156.397 59.448C156.366 59.4787 156.335 59.5093 156.305 59.54C156.213 59.54 156.167 59.5707 156.167 59.632C156.044 59.632 155.952 59.6473 155.891 59.678L155.431 59.77C155.308 59.8927 155.201 59.954 155.109 59.954L155.063 59.908C155.001 59.9693 154.955 60 154.925 60H154.741C154.71 60 154.679 60.0153 154.649 60.046C154.618 60.0767 154.587 60.092 154.557 60.092H154.465C154.434 60.092 154.403 60.092 154.373 60.092C154.373 60.1227 154.342 60.138 154.281 60.138C154.189 60.138 154.051 60.138 153.867 60.138C153.713 60.138 153.591 60.1533 153.499 60.184ZM153.039 59.77C153.039 59.77 153.069 59.77 153.131 59.77C153.223 59.7393 153.284 59.724 153.315 59.724C153.468 59.724 153.606 59.7393 153.729 59.77C153.851 59.77 153.974 59.77 154.097 59.77C154.158 59.77 154.189 59.7393 154.189 59.678H154.281C154.373 59.586 154.419 59.5707 154.419 59.632C154.449 59.6933 154.495 59.6933 154.557 59.632C154.618 59.632 154.649 59.6167 154.649 59.586L154.833 59.494C154.863 59.494 154.879 59.494 154.879 59.494C154.879 59.4633 154.894 59.448 154.925 59.448H155.017C155.078 59.448 155.139 59.4173 155.201 59.356C155.262 59.2947 155.293 59.264 155.293 59.264C155.293 59.264 155.339 59.218 155.431 59.126C155.431 59.126 155.446 59.126 155.477 59.126C155.507 59.0953 155.538 59.08 155.569 59.08C155.63 59.0187 155.691 58.988 155.753 58.988C155.753 58.9573 155.783 58.9267 155.845 58.896C155.906 58.8347 155.937 58.804 155.937 58.804C155.967 58.7733 155.998 58.758 156.029 58.758C156.09 58.7273 156.121 58.6967 156.121 58.666C156.182 58.666 156.305 58.5587 156.489 58.344C156.673 58.1293 156.795 57.8687 156.857 57.562C156.857 57.5007 156.765 57.5467 156.581 57.7C156.397 57.8227 156.305 57.884 156.305 57.884C156.213 57.9147 156.121 57.976 156.029 58.068C155.937 58.1293 155.86 58.16 155.799 58.16C155.768 58.16 155.722 58.1907 155.661 58.252C155.63 58.2827 155.599 58.298 155.569 58.298C155.538 58.298 155.523 58.3133 155.523 58.344C155.523 58.344 155.492 58.3287 155.431 58.298C155.4 58.3593 155.308 58.4207 155.155 58.482C155.001 58.5433 154.894 58.574 154.833 58.574H154.695L154.649 58.62C154.649 58.62 154.633 58.6353 154.603 58.666C154.572 58.666 154.541 58.666 154.511 58.666L154.189 58.712H154.143C154.112 58.712 154.081 58.7273 154.051 58.758C153.928 58.758 153.79 58.7733 153.637 58.804C153.483 58.8347 153.391 58.85 153.361 58.85H153.315C153.315 58.8193 153.299 58.804 153.269 58.804V58.85H153.039C152.947 58.85 152.839 58.8347 152.717 58.804C152.625 58.7427 152.548 58.712 152.487 58.712C152.456 58.712 152.441 58.7273 152.441 58.758C152.441 58.758 152.425 58.758 152.395 58.758H152.303C152.272 58.758 152.257 58.7427 152.257 58.712H152.027C152.027 58.62 151.996 58.6047 151.935 58.666H151.889C151.766 58.666 151.659 58.62 151.567 58.528C151.505 58.436 151.398 58.39 151.245 58.39L151.107 58.252C151.107 58.2827 151.091 58.3133 151.061 58.344C151.061 58.344 151.061 58.3593 151.061 58.39C151.061 58.39 151.076 58.4207 151.107 58.482C151.168 58.5127 151.199 58.5433 151.199 58.574L151.291 58.758L151.475 58.988L151.567 59.08C151.597 59.1107 151.613 59.126 151.613 59.126C151.643 59.126 151.674 59.1567 151.705 59.218C151.766 59.218 151.797 59.264 151.797 59.356C152.318 59.632 152.732 59.77 153.039 59.77Z" fill="white"/>
</g>
<defs>
<filter id="filter0_d_58_80" x="0.0799561" y="16.76" width="166.573" height="63.718" filterUnits="userSpaceOnUse" color-interpolation-filters="sRGB">
<feFlood flood-opacity="0" result="BackgroundImageFix"/>
<feColorMatrix in="SourceAlpha" type="matrix" values="0 0 0 0 0 0 0 0 0 0 0 0 0 0 0 0 0 0 127 0" result="hardAlpha"/>
<feOffset dy="3"/>
<feGaussianBlur stdDeviation="2"/>
<feComposite in2="hardAlpha" operator="out"/>
<feColorMatrix type="matrix" values="0 0 0 0 1 0 0 0 0 1 0 0 0 0 1 0 0 0 0.5 0"/>
<feBlend mode="normal" in2="BackgroundImageFix" result="effect1_dropShadow_58_80"/>
<feBlend mode="normal" in="SourceGraphic" in2="effect1_dropShadow_58_80" result="shape"/>
</filter>
</defs>
</svg>
